<?xml version="1.0" standalone="no"?>
<!DOCTYPE svg PUBLIC "-//W3C//DTD SVG 1.1//EN" "http://www.w3.org/Graphics/SVG/1.1/DTD/svg11.dtd" >
<!--
2013-9-30: Created.
-->
<svg>
<metadata>
Created by iconfont
</metadata>
<defs>

<font id="iconfont" horiz-adv-x="1024" >
  <font-face
    font-family="iconfont"
    font-weight="500"
    font-stretch="normal"
    units-per-em="1024"
    ascent="896"
    descent="-128"
  />
    <missing-glyph />
    
    <glyph glyph-name="tiaozhuan" unicode="&#59113;" d="M576 251.904c-124.416 0-170.496 7.68-248.32-20.992-107.52-45.568-179.2-101.376-248.832-195.072 1.536 8.192 2.56 16.384 4.096 24.576l4.608 24.576c22.528 100.352 53.76 199.168 110.08 286.208 57.856 89.088 76.288 119.808 174.08 165.376 63.488 29.696 88.576 31.232 158.208 35.84 14.848 1.024 29.696 1.536 45.056 2.048V786.432c1.024 0.512 2.048 1.536 2.56 2.048l378.88-375.808C829.44 287.744 702.464 163.328 575.488 38.4c0.512 70.656 0.512 141.824 0.512 213.504z"  horiz-adv-x="1024" />

    
    <glyph glyph-name="aixin" unicode="&#58919;" d="M574.48196 700c-60.08 0-108.2-21.48-150.6-63.76-0.08 0-0.08 0-0.08-0.08h-0.08l-24.12-30.24-24.12 28.4c0 0.08 0 0.08-0.08 0.12C332.96196 676.64 284.88196 699.92 224.80196 699.92a223.952 223.952 0 0 1-158.92-65.48 222.884 222.884 0 0 1-0.12-316.28l298.36-299.48a50.216 50.216 0 0 1 70.96 0l88.44 88.84a1392.744 1392.744 0 0 0-148.84 153.32c-27.88 43.76-56.2 132.56-31.28 197.76 25 65.32 61.92 127.96 182.4 145.32s173.52-55.2 173.52-55.2 15.6 19.72 67.28 43.8a228.728 228.728 0 0 1-33.2 41.92A223.832 223.832 0 0 1 574.48196 700z m266.92-130.52c-48.8 0-87.96-17.44-122.4-51.76 0-0.04 0-0.04-0.08-0.04l-19.6-24.64-19.6 23.12-0.04 0.04c-34.56 34.4-73.64 53.28-122.36 53.28a181.644 181.644 0 0 1-129.24-310.28l242.44-243.24a40.656 40.656 0 0 1 57.6 0l242.48 243.24a181.82 181.82 0 0 1-129.2 310.28z"  horiz-adv-x="1024" />

    
    <glyph glyph-name="liaotian" unicode="&#59215;" d="M964.48 562.816c-24.96 54.656-60.544 103.808-105.856 145.792C813.184 750.72 760.32 783.872 702.592 806.4c-122.496 47.616-258.56 47.616-381.056 0-57.728-22.528-110.72-55.68-156.16-97.792-45.312-42.112-80.896-91.136-105.856-145.792-51.968-113.92-51.968-244.864 0-358.784 24.96-54.656 60.544-103.808 105.856-145.792 45.44-42.112 98.432-75.264 156.16-97.792 60.672-23.808 125.312-35.84 190.592-35.712h393.216c18.048 0 32.768 14.72 32.768 32.768V154.368c42.88 69.376 65.536 148.352 65.536 228.992 0 61.952-13.312 123.136-39.168 179.456z m-649.088 17.152h393.216c18.048 0 32.768-14.72 32.768-32.768s-14.72-32.768-32.768-32.768H315.392c-18.048 0-32.768 14.72-32.768 32.768 0 18.176 14.72 32.768 32.768 32.768z m393.216-393.216H315.392c-18.048 0-32.768 14.72-32.768 32.768s14.72 32.768 32.768 32.768h393.216c18.048 0 32.768-14.72 32.768-32.768s-14.72-32.768-32.768-32.768z m65.536 163.84H249.856c-18.048 0-32.768 14.72-32.768 32.768s14.72 32.768 32.768 32.768h524.288c18.048 0 32.768-14.72 32.768-32.768s-14.72-32.768-32.768-32.768z"  horiz-adv-x="1024" />

    
    <glyph glyph-name="home" unicode="&#58913;" d="M791.24034768 798.22098564c-14.95930464 14.95930464-9.97286976 39.89147792 4.98643488 54.85078257 4.98643488 4.98643488 29.91860816 9.97286976 39.89147792 9.97286976h79.78295695c69.8100872 0 64.82365232-69.8100872 64.82365233-69.81008721v-74.79652207c0-9.97286976 0-34.90504304-9.97286976-39.89147792-14.95930464-14.95930464-39.89147792-19.94573952-54.85078257-4.98643488l-124.66086975 124.66086975zM960.77913024 504.02133334l-174.52521744 169.53878255-179.51165231 174.52521744s-89.75582561 99.72869537-189.48452098 0l-184.49808719-174.52521744-174.52521744-174.52521743c-14.95930464-9.97286976-34.90504304-49.86434768-34.90504304-74.79652209 0-39.89147792 29.91860816-74.79652208 64.82365121-74.79652096v-378.96904415c0-44.8779128 39.89147792-84.76939184 84.76939183-84.76939073h678.15513024c44.8779128 0 84.76939184 39.89147792 84.76939183 84.76939073v378.96904415c34.90504304 0 64.82365232 34.90504304 64.82365121 74.79652096v4.98643488c0 19.94573952-19.94573952 59.83721744-39.89147792 74.79652209z m-309.15895583-364.00973953h-279.24034882c-24.9321744 0-44.8779128 19.94573952-44.87791279 44.87791392 0 19.94573952 19.94573952 39.89147792 44.87791279 39.89147792h279.24034882c24.9321744 0 44.8779128-19.94573952 44.87791279-39.89147792 0-24.9321744-19.94573952-44.8779128-44.87791279-44.87791392z"  horiz-adv-x="1024" />

    
    <glyph glyph-name="xiaoye" unicode="&#58918;" d="M798.5-71.39999999999998H223.8c-52.9 0-95.8 42.9-95.8 95.8 0 171.9 139.3 311.2 311.2 311.2h143.6c171.9 0 311.2-139.3 311.2-311.2 0.3-52.9-42.6-95.8-95.5-95.8z m-215.4 359H439.5c-145.4 0-263.4-118-263.4-263.4 0-26.5 21.3-47.8 47.8-47.8h574.7c26.5 0 47.8 21.6 47.8 47.8 0.1 145.6-117.9 263.4-263.3 263.4z m-71.8 71.8c-132.3 0-239.4 107.1-239.4 239.4S379 838.2 511.3 838.2s239.4-107.1 239.4-239.4c0-132-107.4-239.4-239.4-239.4z m0 431c-105.9 0-191.7-85.8-191.7-191.7S405.4 407 511.3 407 703 492.9 703 598.8c-0.3 105.8-86.1 191.6-191.7 191.6zM513.06666667 613.44m-255.04 0a255.04 255.04 0 1 1 510.08 0 255.04 255.04 0 1 1-510.08 0ZM816.96-101.75999999999999H204.90666667c-56.42666667 0-102.50666667 46.08-102.50666667 102.50666667v2.02666666c0 180.48 147.62666667 328.10666667 328.10666667 328.10666667h158.82666666c181.54666667 0 330.13333333-148.58666667 330.13333334-330.13333333 0-56.42666667-46.08-102.50666667-102.50666667-102.50666667z"  horiz-adv-x="1024" />

    
    <glyph glyph-name="miji" unicode="&#58912;" d="M512.341333 226.304c-5.802667 0-11.264 2.048-16.042666 5.461333-0.682667 0.682667-89.770667 68.608-125.610667 125.269334-11.605333 18.090667-27.648 43.008-27.648 78.165333 0 58.709333 44.032 106.496 97.962667 106.496 26.624 0 52.565333-12.288 70.997333-33.109333 18.432 21.162667 44.032 33.109333 70.997333 33.109333 53.930667 0 97.962667-47.786667 97.962667-106.496 0-35.157333-16.042667-59.733333-27.648-78.165333-35.84-55.978667-124.928-124.586667-125.952-125.269334-3.754667-3.413333-9.216-5.461333-15.018667-5.461333z m-70.997333 301.738667c-46.421333 0-84.309333-41.642667-84.309333-92.842667 0-31.061333 13.994667-52.906667 25.258666-70.656 34.133333-53.589333 121.514667-120.832 122.538667-121.514667 4.437333-3.754667 10.581333-3.413333 15.018667 0 1.024 0.682667 88.746667 68.608 122.538666 121.856 11.264 17.749333 25.258667 39.594667 25.258667 70.656 0 51.2-37.888 92.842667-84.309333 92.842667-25.258667 0-49.152-12.629333-65.536-34.474667l-5.461334-7.509333-5.461333 7.509333c-16.042667 21.504-39.936 34.133333-65.536 34.133334zM375.808 360.448c34.133333-53.930667 120.490667-120.490667 124.245333-123.562667 3.413333-2.730667 7.509333-4.096 11.605334-4.096s8.192 1.365333 11.605333 4.096c3.754667 2.730667 89.770667 69.632 124.245333 123.562667 11.946667 18.432 26.624 41.642667 26.624 74.410667 0 5.802667-0.341333 11.946667-1.365333 17.408-82.602667-51.541333-160.768 4.096-160.768 4.096-64.170667 50.858667-133.461333 19.456-158.378667 4.778666-2.389333-8.533333-3.754667-17.066667-3.754666-26.282666-0.341333-32.768 14.336-55.637333 25.941333-74.410667z"  horiz-adv-x="1024" />

    
    <glyph glyph-name="rar" unicode="&#58932;" d="M160-64l0 864 320 0 0-64-64 0 0-64 64 0 0-64-64 0 0-64 64 0 0-64-64 0 0-64 64 0 0-64 64 0 0 64-64 0 0 64 64 0 0 64-64 0 0 64 64 0 0 64-64 0 0 64 64 0 0 64 95.712 0 0-192.288 192.288 0 0-671.712-672 0zM544 320l-128 0 0-224 128 0 0 224zM512 129.984l-64 0 0 64 64 0 0-64zM672 800l7.84 0 152.16-152.16 0-5.856-160 0 0 158.016z"  horiz-adv-x="1024" />

    
    <glyph glyph-name="bofang1" unicode="&#58909;" d="M512 896a512 512 0 1 1 512-512A512 512 0 0 1 512 896z m0-938.666667a426.666667 426.666667 0 1 0 426.666667 426.666667 426.666667 426.666667 0 0 0-426.666667-426.666667zM402.346667 576c-45.226667-47.786667-32.426667-345.173333 0-378.026667s301.226667 133.973333 301.226666 189.013334S420.693333 593.493333 402.346667 576z"  horiz-adv-x="1024" />

    
    <glyph glyph-name="zanting" unicode="&#58911;" d="M512 896a512 512 0 1 1 512-512A512 512 0 0 1 512 896z m0-938.666667a426.666667 426.666667 0 1 0 426.666667 426.666667 426.666667 426.666667 0 0 0-426.666667-426.666667zM320 576m27.733333 0l72.533334 0q27.733333 0 27.733333-27.733333l0-328.533334q0-27.733333-27.733333-27.733333l-72.533334 0q-27.733333 0-27.733333 27.733333l0 328.533334q0 27.733333 27.733333 27.733333ZM576 576m27.733333 0l72.533334 0q27.733333 0 27.733333-27.733333l0-328.533334q0-27.733333-27.733333-27.733333l-72.533334 0q-27.733333 0-27.733333 27.733333l0 328.533334q0 27.733333 27.733333 27.733333Z"  horiz-adv-x="1024" />

    
    <glyph glyph-name="qianjin-copy" unicode="&#58907;" d="M598.144 384.006l-289.824-289.83c-17.030-17.024-17.030-44.64 0-61.658l12.339-12.333c17.024-17.030 44.627-17.030 61.658 0l320.614 320.627c0.006 0.006 0.019 0.013 0.026 0.026l12.333 12.333c17.030 17.024 17.030 44.634 0 61.651l-12.333 12.346c-0.038 0.045-0.090 0.077-0.128 0.115l-320.525 320.531c-17.030 17.037-44.634 17.037-61.658 0l-12.339-12.333c-17.030-17.030-17.030-44.627 0-61.658l289.837-289.818z"  horiz-adv-x="1024" />

    
    <glyph glyph-name="zhifuweixin" unicode="&#58917;" d="M422.118552 248.261231C416.877716 245.607778 410.96526 244.08838 404.689468 244.08838 390.200097 244.08838 377.582452 252.070746 370.954334 263.873638L368.433009 269.444779 262.779507 501.263715C261.634449 503.785041 260.91879 506.625664 260.91879 509.411235 260.91879 520.08008 269.583787 528.756087 280.285662 528.756087 284.634677 528.756087 288.620355 527.324765 291.846332 524.902531L416.514381 436.149623C425.630793 430.182118 436.486814 426.691895 448.212634 426.691895 455.204083 426.691895 461.854221 427.991095 468.052945 430.248179L1054.377033 691.2C949.285052 815.053298 776.194313 896 580.334562 896 259.817773 896 0 679.485188 0 412.3897 0 266.670221 78.183151 135.506176 200.506039 46.852361 210.338113 39.849899 216.779055 28.344282 216.779055 15.363302 216.779055 11.069342 215.84319 7.127701 214.731165 3.020911 204.954142-33.433728 189.308704-91.78758 188.560014-94.518101 187.370916-99.087322 185.466159-103.876736 185.466159-108.666159 185.466159-119.335002 194.120145-128 204.81101-128 209.01689-128 212.43004-126.436557 215.975312-124.388668L343.032567-51.060996C352.589388-45.533897 362.696713-42.120747 373.850007-42.120747 379.773473-42.120747 385.498758-43.03459 390.904747-44.686114 450.18345-61.729843 514.119458-71.198579 580.345574-71.198579 900.818321-71.198579 1160.669124 145.327245 1160.669124 412.411721 1160.669124 493.314383 1136.700002 569.504695 1094.564122 636.512534L426.379485 250.716501 422.118552 248.261231 422.118552 248.261231ZM2247.812399 480.685722 2573.217698 480.685722 2573.217698 453.193353 2247.812399 453.193353 2247.812399 480.685722 2247.812399 480.685722ZM2247.812399 389.015125 2573.217698 389.015125 2573.217698 359.221632 2247.812399 359.221632 2247.812399 389.015125 2247.812399 389.015125ZM2256.114057 103.356501 2564.916041 103.356501 2564.916041 278.627251 2256.114057 278.627251 2256.114057 103.356501 2256.114057 103.356501ZM2535.155575 130.848875 2285.918566 130.848875 2285.918566 251.112858 2535.155575 251.112858 2535.155575 130.848875 2535.155575 130.848875ZM2176.763831 650.198156C2147.708015 547.858713 2106.485973 457.751556 2053.042654 379.854669 2053.053662 379.821641 2053.075682 379.788608 2053.097702 379.75558L2069.35971 351.558558C2088.341227 379.634466 2107.355776 411.21161 2126.370321 446.28998L2126.370321 101.363661 2156.152806 101.363661 2156.152806 508.156073C2175.013214 548.761548 2191.055014 590.853391 2204.410342 634.233423L2176.763831 650.198156 2176.763831 650.198156ZM2412.821679 574.646432 2436.19625 588.11186C2431.605013 598.780705 2412.07299 638.747588 2405.984367 652.477258L2378.503006 636.600607C2388.25801 618.246668 2397.473515 599.881722 2405.962347 581.527783 2407.459729 578.455948 2408.230443 576.165835 2408.230443 574.657443L2215.739802 574.657443 2215.739802 544.874959 2607.613444 544.874959 2607.613444 574.657443 2412.821679 574.657443 2412.821679 574.646432ZM1677.959509 642.204781 1705.451878 642.204781 1705.451878 495.527418 1762.75977 495.527418 1762.75977 598.659593 1790.252139 598.659593 1790.252139 468.024034 1590.880149 468.024034 1590.880149 598.659593 1618.383531 598.659593 1618.383531 495.527418 1677.959509 495.527418 1677.959509 642.204781ZM1600.05161 408.459068 1776.511458 408.459068 1776.511458 380.966694 1600.05161 380.966694 1600.05161 408.459068 1600.05161 408.459068ZM1801.592602 248.921839 1755.889425 209.714654 1755.889425 321.368695 1606.932958 321.368695 1606.932958 277.834522C1611.237935 216.177621 1596.0329 172.709504 1561.32887 147.386133L1577.238554 119.794671C1619.924945 154.950114 1639.776265 203.758161 1636.715443 266.372941L1636.715443 293.865314 1728.386039 293.865314 1728.386039 227.407983C1727.263002 204.859174 1726.15098 197.361254 1718.091541 186.196949L1735.30042 156.414468C1750.549495 168.657766 1777.260143 191.503846 1815.355302 225.02979L1801.592602 248.921839 1801.592602 248.921839ZM1549.008503 647.875013C1520.569259 589.796414 1486.27261 541.924235 1446.140574 504.302518L1462.898039 475.257713C1508.546163 521.004932 1545.848589 573.567439 1574.7943 632.978267L1549.008503 647.875013 1549.008503 647.875013ZM1545.055859 497.817533C1517.72864 429.477466 1482.033698 370.209771 1438.103155 319.981419L1454.034859 292.367936C1472.135565 313.507443 1489.465557 335.395644 1506.101909 358.032533L1506.101909 101.374677 1533.594278 101.374677 1533.594278 403.878844C1547.081728 427.814933 1559.787452 454.041135 1571.843575 482.42533L1545.055859 497.817533 1545.055859 497.817533ZM2005.522803 513.914387 2005.522803 541.406758 1874.909265 541.406758C1886.007505 574.844615 1899.340809 614.800491 1903.777907 649.075121L1874.909265 649.108151C1855.729566 559.19918 1827.312337 483.548365 1789.668599 422.089647L1807.053641 391.954837C1810.092446 398.010423 1814.331358 406.488247 1819.902498 417.663561 1825.991117 428.343415 1830.593365 436.755179 1833.676211 442.865822 1842.836663 361.886089 1858.878468 297.718874 1881.790613 250.386189 1859.935441 212.511236 1826.827891 173.953655 1782.798255 134.713442L1799.335518 106.05399C1846.635166 150.358878 1878.707767 188.509086 1895.531294 220.581683 1915.393626 184.710579 1949.106735 142.277419 1986.464209 104.336405L2003.221675 133.38121C1964.102575 170.738688 1930.224311 212.114871 1911.584111 248.085069 1945.154091 309.15843 1965.787132 397.801233 1973.450202 513.914389L2005.522803 513.914387 2005.522803 513.914387ZM1897.82141 282.45879C1877.959078 332.874313 1863.458697 400.840038 1854.287232 486.399997 1857.33705 495.571461 1861.168585 504.731916 1865.748813 513.903379L1945.957833 513.903379C1939.825173 416.122138 1923.794377 338.951923 1897.82141 282.45879L1897.82141 282.45879ZM3573.501811 244.209489C3553.47433 283.757986 3512.252288 352.340279 3478.85847 402.392469L3503.741431 414.745869C3537.70778 364.693679 3579.56841 297.972105 3599.584883 260.878874L3573.501811 244.209489 3573.501811 244.209489ZM3202.899802 106.560461 3210.75005 132.500399C3117.372877 146.483302 3036.481225 173.116881 2968.790754 212.687398 3041.611959 260.878874 3100.450257 324.52861 3136.827831 409.174729L3117.427925 422.16672 3111.361327 420.922569 2954.235324 420.922569 2954.235324 529.691947 3192.649348 529.691947 3192.649348 559.342309 2954.235324 559.342309 2954.235324 661.296397 2925.135471 661.296397 2925.135471 559.342309 2687.315998 559.342309 2687.315998 529.691947 2925.135471 529.691947 2925.135471 420.922569 2763.330146 420.922569 2763.330146 391.877764C2797.90205 318.968482 2851.125167 259.040175 2914.818948 213.920538 2843.263915 173.568299 2759.003153 147.375125 2672.188036 131.201199L2680.64384 103.532668C2680.831014 103.092262 2681.117278 102.475691 2681.27142 102.079326 2774.098082 120.620437 2864.491503 150.259789 2941.507575 195.368418 3013.701201 150.259789 3101.044809 119.981845 3201.754748 104.5456 3202.09606 105.140147 3202.525457 105.910861 3202.899802 106.560461L3202.899802 106.560461ZM2797.747908 391.877764 3093.778099 391.877764C3059.800742 323.295475 3007.040055 270.777007 2942.135155 229.367795 2879.630473 271.999134 2830.492126 325.761749 2797.747908 391.877764L2797.747908 391.877764ZM3416.38682 656.980415C3380.460663 559.782714 3322.767424 466.339482 3260.582033 403.27328L3272.979473 371.850283C3273.221696 371.354825 3273.662106 370.694212 3273.84928 370.253807 3299.910327 396.193745 3324.176721 427.099268 3347.220992 461.087633L3347.220992 102.673873 3376.353877 102.673873 3376.353877 506.812833C3402.447957 551.304893 3425.503236 598.879799 3444.297579 648.337439L3416.38682 656.980415 3416.38682 656.980415ZM3717.889062 521.643521 3717.889062 653.886562 3688.756177 653.886562 3688.756177 521.643521 3434.597623 521.643521 3434.597623 491.982148 3688.756177 491.982148 3688.756177 148.42109C3688.756177 134.217984 3683.911706 130.507563 3669.950822 129.285431 3658.885611 128.778965 3646.950596 126.136525 3615.373453 125.949355L3615.472546 100.009417C3658.489242 99.756181 3673.000636 100.493862 3689.372745 105.184192 3708.794667 110.127753 3717.889062 120.00387 3717.889062 149.048674L3717.889062 491.982148 3799.782639 491.982148 3799.782639 521.643521 3717.889062 521.643521 3717.889062 521.643521Z"  horiz-adv-x="3840" />

    
    <glyph glyph-name="zhifubao" unicode="&#58908;" d="M233.6 335.136c-20.256-2.016-58.272-10.944-79.056-29.28-62.4-54.144-25.008-153.168 101.04-153.168 73.248 0 146.496 46.752 204 121.488-81.6 39.84-150.96 68.352-225.984 60.96zM704 266.688c116.688-38.976 143.136-41.04 143.136-41.04V644.64a129.6 129.6 0 0 1-129.6 129.6H166.4a129.6 129.6 0 0 1-129.6-129.6v-549.168a129.6 129.6 0 0 1 129.6-129.6h550.992a129.6 129.6 0 0 1 129.6 129.6V100.8S636.224 188.4 529.76 239.424c-71.376-87.552-163.488-140.736-259.2-140.736-161.664 0-216.576 141.072-140.064 233.952 16.704 20.208 45.12 39.552 89.184 50.4 68.928 16.896 178.656-10.56 281.472-44.4A562.224 562.224 0 0 1 546.8 449.856H230V481.92h163.2v57.6H195.728V571.2h197.856v81.936a13.584 13.584 0 0 0 14.016 13.776h79.872V571.2H683.12v-32.016H487.472v-57.6h159.744a650.784 650.784 0 0 0-67.632-170.352c48.48-17.472 91.968-34.032 124.416-44.88zM2246.03 634.512h246.33v-48.78h87.975v57.78a1.26 1.26 0 0 0 0 0.36 23.445 23.445 0 0 1-22.77 23.715H2415.14v45.45h-92.07v-45.45h-165.015v-81.855h87.975z m-595.98 74.34l-90.18-213.345h69.165v-253.845h75.69V578.397h-27.405l57.015 130.455h-84.285z m912.735-362.205a14.355 14.355 0 0 1-13.5 10.305h-73.35l21.24-71.73H2411V424.137h169.11v33.03H2411v65.385h169.11v33.075h-422.1v-33.075h169.11v-65.385h-169.065v-33.075h169.11v-138.87h-169.11v-33.075h432.405l-0.36 1.125h0.36z m-719.19 187.335a17.55 17.55 0 0 1-15.57 9.945h-65.52l51.03-160.695h77.49zM2009.42 704.982h-78.66v-82.215h-193.815v-33.075h193.815v-295.425a13.5 13.5 0 0 0-12.69-12.375h-39.96v-34.245h101.925a31.05 31.05 0 0 1 29.385 30.645V589.737h31.95v33.03h-31.95zM1466.9 272.667a931.86 931.86 0 0 0-173.34 82.62c64.755 47.925 121.5 112.995 144 200.025h-150.93v54h175.14v33.795h-175.14v68.58h-78.075a15.75 15.75 0 0 1-15.48-16.02v-52.56H1019.15v-33.705h173.925v-54h-146.79v-33.705h292.5s-16.2-63.27-96.39-131.265c-72 54.27-95.895 97.605-95.895 97.605h-78.57c31.725-54.99 76.815-99 125.37-134.01-44.595-28.98-102.465-56.925-177.255-79.29v-40.5a791.37 791.37 0 0 1 226.935 87.48 812.385 812.385 0 0 1 223.92-87.3z m-363.555-100.125l-72-195.795h36.63l13.5 39.42h72l13.05-39.42h36.63l-72 195.795z m-13.05-131.67l28.08 81 27-81z m308.88 131.67h-35.19v-195.795h118.53v26.64h-83.34V172.542z m257.535 0h35.235v-195.795h-35.235z m299.07 0h-76.095v-195.795h35.19v75.42h40.905c37.98 0 64.485 24.795 64.485 60.255s-26.505 60.12-64.485 60.12z m-1.98-93.645h-38.925v67.005h38.925c19.53 0 31.23-17.1 31.23-33.615s-10.935-33.39-31.185-33.39z m267.885 93.645l-72-195.795h36.63l13.5 39.42h72l13.05-39.42h36.63l-72 195.795z m-13.185-131.67l28.08 81 27-81z m309.465 131.67l-38.43-83.43-39.015 83.43h-38.025l59.265-115.38v-80.415h34.965v80.415l0.225 0.45 59.085 114.93h-38.07z"  horiz-adv-x="2899" />

    
    <glyph glyph-name="gou" unicode="&#59105;" d="M999.2192 722.3296c-29.9008 29.9008-78.4384 29.9008-108.3392 0L376.6272 208.0768 133.12 451.584c-29.9008 29.9008-78.4384 29.9008-108.3392 0-29.9008-29.9008-29.9008-78.4384 0-108.3392L268.288 99.7376l54.0672-54.0672c29.9008-29.9008 78.4384-29.9008 108.3392 0l568.32 568.32c30.1056 29.9008 30.1056 78.4384 0.2048 108.3392z"  horiz-adv-x="1024" />

    
    <glyph glyph-name="shoucang1" unicode="&#58901;" d="M707.584 802.816c-77.312 0-148.992-38.912-196.608-102.912-47.104 64-119.296 102.912-196.608 102.912-139.264 0-252.416-123.904-252.416-275.968 0-90.624 40.448-154.624 73.216-205.824 94.72-148.992 333.312-333.824 343.552-341.504 9.728-7.68 20.992-11.264 32.256-11.264s22.528 3.584 32.256 11.264c10.24 7.68 248.32 193.024 343.552 341.504 32.768 51.2 73.216 115.2 73.216 205.824 0 152.064-113.152 275.968-252.416 275.968z"  horiz-adv-x="1024" />

    
    <glyph glyph-name="jingyin" unicode="&#59111;" d="M94.69103 532.010522v-285.137046c0-76.036546 63.363788-139.400334 139.400334-139.400334h139.400333l253.455152-209.1005c57.027409-50.69103 107.71844-25.345515 107.71844 50.691031v76.036545L139.045682 627.056204c-25.345515-25.345515-44.354652-57.027409-44.354652-95.045682zM956.438547 6.091082L741.001668 221.527961V817.147568C741.001668 893.184113 690.310637 918.529628 626.946849 874.174977l-253.455152-202.764122H291.118773L126.372924 836.156704C107.363788 855.16584 75.681894 855.16584 56.672758 836.156704c-19.009136-19.009136-19.009136-50.69103 0-69.700167l830.065622-823.729243c19.009136-19.009136 50.69103-19.009136 69.700167 0 19.009136 19.009136 19.009136 44.354652 0 63.363788z"  horiz-adv-x="1024" />

    
    <glyph glyph-name="Error" unicode="&#58904;" d="M906.752 399.36C851.456 455.168 777.728 485.888 698.88 485.888s-152.576-30.72-208.384-86.528c-55.808-55.808-86.528-129.536-86.528-208.384 0-78.848 30.72-152.576 86.528-208.384 55.808-55.296 129.536-86.016 208.384-86.016 78.848 0 152.576 30.72 208.384 86.528C962.56 38.39999999999998 993.28 112.12800000000004 993.28 190.976c0.512 78.848-30.72 152.576-86.528 208.384z m-79.872-332.8l-1.024-1.024c-8.192-6.144-15.36-9.216-22.528-9.216-9.216 0-16.896 3.584-23.552 9.728l-79.36 79.36-78.336-78.336-0.512-0.512c-8.192-6.144-15.36-9.216-22.528-9.216-9.216 0-16.896 3.584-23.552 9.728-12.288 12.288-12.288 33.792 0 45.568l77.824 77.824-77.824 77.824c-12.288 12.288-12.288 33.792 0 45.568 12.288 11.776 33.792 12.288 45.568 0l77.824-77.824 79.36 79.36c12.288 12.288 33.792 12.288 45.568 0 12.288-12.288 11.776-31.232 4.608-43.52l-0.512-1.024-80.384-80.384 79.36-79.36c11.776-11.264 11.776-32.256 0-44.544zM868.864 867.84h-727.04c-28.16 0-51.2-23.04-51.2-51.2v-868.864c0-28.16 23.04-51.2 51.2-51.2h396.8c-107.008 59.392-177.664 175.616-171.52 307.712 8.192 172.544 149.504 311.808 322.56 317.44 88.576 2.56 169.984-29.184 230.912-82.944v377.856c-0.512 28.16-23.552 51.2-51.712 51.2zM512 564.736c0-18.944-15.36-34.304-34.304-34.304h-291.328a34.304 34.304 0 0 0 0 68.608h291.328c18.944 0 34.304-15.36 34.304-34.304z m288.768 123.392h-614.4a34.304 34.304 0 0 0 0 68.608h614.4c18.944 0 34.304-15.36 34.304-34.304 0.512-18.944-14.848-34.304-34.304-34.304z"  horiz-adv-x="1024" />

    
    <glyph glyph-name="zuanji" unicode="&#59016;" d="M1038.277372 896.000015L686.041497 896.000015l235.592247-311.41957L1038.277372 896.000015zM1038.277372 896.000015M682.132539-54.82492300000001l227.971395 608.585981L450.520322 553.7610569999999 682.132539-54.82492300000001zM682.132539-54.82492300000001M466.453363 578.778388l428.205341 0L679.824316 862.806178 466.453363 578.778388zM466.453363 578.778388M1055.959753 872.032611l-109.793259-293.254222 287.728377 0L1055.959753 872.032611zM1055.959753 872.032611M936.733306 553.759442L682.339294-125.41230399999995l-258.51457 679.173361L134.27755 553.7610569999999 682.339294-127.99996899999996l549.040599 681.759412L936.733306 553.759442zM936.733306 553.759442M439.059968 583.952104L673.531217 896.000015 326.54013 896.000015l-3.917034-6.010427L439.059968 583.952104zM439.059968 583.952104M414.318849 578.778388L305.782271 863.991787 121.416756 578.778388 414.318849 578.778388zM414.318849 578.778388"  horiz-adv-x="1360" />

    
    <glyph glyph-name="suo" unicode="&#59049;" d="M844.8 465.067h-72.533V635.733C772.267 780.8 652.8 896 512 896S251.733 780.8 251.733 635.733v-170.666H179.2c-34.133 0-64-29.867-64-64V-64c0-34.133 29.867-64 64-64h665.6c34.133 0 64 29.867 64 64V401.067c0 38.4-29.867 64-64 64z m-298.667-307.2v-102.4c0-4.267-4.266-8.534-8.533-8.534h-55.467c-4.266 0-8.533 4.267-8.533 8.534v102.4c-25.6 12.8-42.667 38.4-42.667 72.533 0 42.667 34.134 81.067 81.067 81.067 42.667 0 81.067-34.134 81.067-81.067 0-34.133-21.334-59.733-46.934-72.533z m123.734 307.2H354.133v166.4c0 89.6 72.534 157.866 157.867 157.866 89.6 0 157.867-72.533 157.867-157.866v-166.4z m0 0"  horiz-adv-x="1024" />

    
    <glyph glyph-name="zhankai1" unicode="&#58949;" d="M656.2 624H123c-11.8 0-21.3 9.5-21.3 21.3V720c0 11.8 9.5 21.3 21.3 21.3h533.3c11.8 0 21.3-9.5 21.3-21.3v-74.7c0-11.8-9.6-21.3-21.4-21.3zM592.2 325.29999999999995H123c-11.8 0-21.3 9.5-21.3 21.3v74.7c0 11.8 9.5 21.3 21.3 21.3h469.3c11.8 0 21.3-9.5 21.3-21.3v-74.7c0-11.7-9.6-21.3-21.4-21.3zM656.2 26.700000000000045H123c-11.8 0-21.3 9.5-21.3 21.3v74.7c0 11.8 9.5 21.3 21.3 21.3h533.3c11.8 0 21.3-9.5 21.3-21.3V48c0-11.7-9.6-21.3-21.4-21.3zM718.8 550.6l195.7-151.1c10.8-8.1 10.1-22.8 0-31.5L718.8 216.89999999999998c-10.9-8.8-31.5-3.8-31.5 22.3V528.3c0 31.7 20.7 31.6 31.5 22.3"  horiz-adv-x="1024" />

    
    <glyph glyph-name="point" unicode="&#58905;" d="M927.816213 384.790439c-0.001024-230.592286-185.405155-415.329867-416.795047-415.296078-229.345193 0.033788-415.775257 186.697298-415.077992 416.24522 0.720815 237.256755 195.627626 418.297087 422.186827 415.758875 225.22815-2.523877 409.687235-188.012991 409.686212-416.708017z m-798.711441 0.391125c1.514326-212.52071 171.079975-382.814341 383.440959-382.618779 218.732622 0.200682 387.254931 181.085382 382.248132 392.103028-4.76721 200.936471-169.635273 375.712672-387.479162 373.298351-207.101285-2.294527-376.630073-169.230838-378.209929-382.7826zM512.276449 688.421585c168.449614 0.003072 303.145824-135.733406 303.109988-305.45059-0.034812-165.440415-137.675716-301.780985-304.026365-300.892252-175.093606 0.935831-306.671061 145.706049-302.34617 311.052266 4.157998 159.007343 133.684611 295.12573 303.262547 295.290576z"  horiz-adv-x="1024" />

    
    <glyph glyph-name="caijian" unicode="&#58900;" d="M274.285714 54.857143h109.714286v-109.714286h-109.714286zM384 237.714286H114.102857a4.388571 4.388571 0 0 0-4.388571 4.388571V781.897143A4.388571 4.388571 0 0 0 114.102857 786.285714h887.222857a4.388571 4.388571 0 0 0 4.388572-4.388571V548.571429h109.714285V781.897143A114.102857 114.102857 0 0 1 1001.325714 896H114.102857A114.102857 114.102857 0 0 1 0 781.897143v-539.794286A114.102857 114.102857 0 0 1 114.102857 128h269.897143zM680.96 237.714286a47.177143 47.177143 0 1 1-46.445714 47.177143A46.811429 46.811429 0 0 1 680.96 237.714286z m208.457143-11.702857l-115.2-164.937143-61.074286 84.114285-96.914286-141.165714H1005.714286z m236.251428 258.56H497.737143a26.697143 26.697143 0 0 1-26.331429-26.697143v-559.177143a26.697143 26.697143 0 0 1 26.331429-26.697143h627.931428a26.331429 26.331429 0 0 1 25.965715 26.697143V457.142857a26.331429 26.331429 0 0 1-25.965715 26.697143z m-80.091428-512h-468.114286V384h468.114286z"  horiz-adv-x="1151" />

    
    <glyph glyph-name="more" unicode="&#58930;" d="M111.966071 372.74363200000005m-109.897969 0a109.897969 109.897969 0 1 1 219.795938 0 109.897969 109.897969 0 1 1-219.795938 0ZM512 372.74363200000005m-109.897969 0a109.897969 109.897969 0 1 1 219.795938 0 109.897969 109.897969 0 1 1-219.795938 0ZM912.033929 372.74363200000005m-109.897969 0a109.897969 109.897969 0 1 1 219.795938 0 109.897969 109.897969 0 1 1-219.795938 0Z"  horiz-adv-x="1024" />

    
    <glyph glyph-name="zengjia" unicode="&#59006;" d="M480 416v192c0 17.673 14.327 32 32 32s32-14.327 32-32v-192h192c17.673 0 32-14.327 32-32s-14.327-32-32-32h-192v-192c0-17.673-14.327-32-32-32s-32 14.327-32 32v192h-192c-17.533 0.351-31.653 14.474-32 31.975-0 17.698 14.327 32.025 32 32.025h192zM512 832c247.424 0 448-200.576 448-448 0-247.424-200.576-448-448-448s-448 200.576-448 448 200.576 448 448 448zM512 0c212.077 0 384 171.923 384 384 0 212.064-171.936 384-384 384s-384-171.936-384-384 171.936-384 384-384z"  horiz-adv-x="1024" />

    
    <glyph glyph-name="zhankai" unicode="&#59645;" d="M511.84384 263.40351999999996L857.31072 611.55328c37.56032 37.85728 99.76832 38.22592 137.90208001-0.2048 38.4-38.69696 38.22591999-100.64896 0.20479999-138.96704L580.68736 54.435839999999985a96.70656 96.70656 0 0 0-68.59776-28.50816 95.46752 95.46752 0 0 0-69.09952 28.50816L28.25984 472.3712c-37.56032 37.85728-37.92896 100.53632 0.2048 138.96704a96.74752 96.74752 0 0 0 137.90208 0.2048L511.84384 263.40351999999996z"  horiz-adv-x="1024" />

    
    <glyph glyph-name="shouqi" unicode="&#58999;" d="M512.15616 504.59648L166.68928 156.44672c-37.56032-37.85728-99.76832-38.22592-137.90208 0.2048-38.4 38.69696-38.22592 100.64896-0.2048 138.96704L443.31264 713.56416a96.70656 96.70656 0 0 0 68.59776 28.50816 95.46752 95.46752 0 0 0 69.09952-28.50816L995.74016 295.6288c37.56032-37.85728 37.92896-100.53632-0.2048-138.96704a96.74752 96.74752 0 0 0-137.90208-0.2048L512.15616 504.59648z"  horiz-adv-x="1024" />

    
    <glyph glyph-name="daunxin" unicode="&#58884;" d="M532.292683 896C238.726909 896 0.02559 691.281887 0.02559 438.608557c0-150.160736 54.608557-273.042783 163.77449-361.788085v-150.211915c0-40.943623 13.664934-54.608557 34.136745-54.608557a52.254298 52.254298 0 0 1 34.136746 13.664934l163.77449 95.603359a924.814074 924.814074 0 0 1 136.444622-13.716114c293.514594 0 491.323471 218.434226 491.323471 470.851659S778.261495 896 532.292683 896z m0-860.123151c-27.329868 0-95.552179 6.806877-122.830868 6.806878l-27.278688 6.806877-20.471812-13.664934-122.830867-68.273491v143.302679l-27.278689 20.471811c-88.745302 75.080368-136.546981 184.246301-136.546981 307.077169 0 218.434226 204.718113 388.964414 464.198321 388.964415 197.962415 0 423.254698-163.77449 423.254698-388.964415-6.806877-231.894442-191.104358-402.578169-430.215114-402.578168zM273.068373 493.217113a61.415434 61.415434 0 1 1 43.451419-18.015194 62.131947 62.131947 0 0 1-43.451419 18.015194z m238.906037 0a61.415434 61.415434 0 1 1 43.45142-18.015194A62.131947 62.131947 0 0 1 511.820872 493.217113z m238.906038 0a61.415434 61.415434 0 1 1 43.451419-18.015194 62.131947 62.131947 0 0 1-43.40024 18.015194z"  horiz-adv-x="1024" />

    
    <glyph glyph-name="youjian" unicode="&#58966;" d="M545.4592-128C226.048-128 11.5456 130.7648 11.5456 372.4544 11.5456 624.5888 170.2656 896 518.8608 896c152.832 0 280.7296-48.768 370.0736-140.9536 80.9216-83.4816 126.976-201.9072 123.2896-316.8256-6.2464-198.8352-108.9792-325.6832-274.7648-339.3024-56.7808-4.8128-98.7904 8.9088-124.3136 40.3712-8.1664 9.9584-14.1312 21.0432-18.1504 33.024-81.8176-75.904-204.5696-95.744-278.528-15.9744-43.8528 47.3856-65.5872 119.7056-59.648 198.4768 12.4928 163.3024 114.5088 277.376 248.064 277.376 62.4896 0 119.2704-25.9072 157.5936-71.5008 8.6272 34.9952 14.3104 57.9328 14.3104 57.9328 5.504 22.7072 28.4416 36.4544 51.2 30.8736 22.656-5.6576 36.5056-28.5696 30.8224-51.2256 0 0-27.1616-109.7216-52.3776-215.4496-1.4592-7.8336-3.3024-15.6928-5.6064-23.5264-2.9184-12.288-6.4256-24.2688-10.368-35.968-14.0288-50.56-27.6224-111.232-11.8272-130.688 6.6048-8.1664 25.6-11.52 51.9168-9.4464 164.8384 13.5424 194.304 167.296 197.248 257.6896 2.944 92.5184-34.3296 187.9296-99.6352 255.3088-73.0368 75.4176-179.9936 115.2256-309.3504 115.2256-292.096 0-422.7328-220.4416-422.7328-438.9632 0-200.8064 180.5312-415.872 449.3312-415.872 218.3424 0 336.128 104.6272 337.2288 105.7024 17.4336 15.744 44.032 14.3872 59.7248-2.8416 15.6928-17.28 14.4128-44.032-2.8416-59.7248C933.8112-5.5296 796.1088-128 545.4592-128L545.4592-128zM504.9088 547.6096c-88.8064 0-154.6752-80.0512-163.6608-199.2192-4.224-54.5792 9.728-104.8576 37.248-134.5792 11.008-11.8272 29.3632-25.856 54.7584-25.856 71.936 0 143.7696 66.9184 176.3328 160.128 3.1232 11.0592 6.3232 22.0672 9.5488 32.896 1.5616 6.2976 3.0208 12.6464 4.5056 19.0464 6.6048 37.376-1.024 73.472-21.6576 101.0944C579.5072 531.0976 545.1008 547.6096 504.9088 547.6096L504.9088 547.6096zM504.9088 547.6096"  horiz-adv-x="1024" />

    
    <glyph glyph-name="pengyouquan" unicode="&#58899;" d="M856.896796 539.636713c-17.989665 42.534244-43.742429 80.730286-76.539524 113.527381-32.797095 32.797095-70.994161 58.548835-113.527381 76.539523-44.042427 18.629593-90.820676 28.074936-139.032364 28.074936-48.211688 0-94.988913-9.445342-139.032365-28.073912-42.534244-17.990689-80.730286-43.742429-113.527381-76.539523-32.798119-32.798119-58.549858-70.994161-76.539523-113.527381-18.62857-44.043451-28.073912-90.820676-28.073912-139.032365s9.445342-94.988913 28.073912-139.033388c17.990689-42.53322 43.742429-80.730286 76.539523-113.527381s70.994161-58.549858 113.527381-76.539524c44.043451-18.62857 90.820676-28.073912 139.032365-28.073911 48.211688 0 94.988913 9.445342 139.032364 28.073911 42.53322 17.989665 80.730286 43.742429 113.527381 76.539524s58.549858 70.994161 76.539524 113.527381c18.62857 44.044475 28.073912 90.820676 28.073911 139.033388s-9.444318 94.988913-28.073911 139.031341z m-34.365687 7.709856L670.946934 385.598285l-10.259331 316.267938c70.225223-31.099493 127.613995-86.047323 161.843506-154.519654zM484.026429 284.41077l-69.34161 64.983954-3.080871 94.980722 64.981906 69.339562 94.981746 3.080871 69.340586-64.98293 3.080871-94.980722-64.98293-69.340586-94.979698-3.080871zM632.440655 712.851489l7.189722-221.636361-230.90969 216.399187c36.947926 14.380469 77.104708 22.287936 119.07684 22.287936 36.564993 0 71.753884-5.998944 104.643128-17.050762z m-251.385349-17.513559l161.748284-151.584174-316.267938-10.259331c31.099493 70.225223 86.047323 127.613995 154.519654 161.843505zM198.499624 400.604348c0 36.564993 5.999968 71.75286 17.050762 104.643128l221.635337 7.189723-216.398163-230.90969c-14.380469 36.94895-22.287936 77.104708-22.287936 119.076839z m34.564321-146.742221l151.583151 161.748285 10.25933-316.266914c-70.225223 31.099493-127.612971 86.047323-161.842481 154.518629zM423.153375 88.357208l-7.189723 221.636361 230.910714-216.400211c-36.947926-14.380469-77.103684-22.287936-119.076839-22.287936-36.564993 0.001024-71.753884 5.999968-104.644152 17.051786z m251.386373 17.513558L512.791463 257.453917l316.266914 10.259331c-31.098469-70.225223-86.046299-127.612971-154.518629-161.842482z m165.504919 190.08943l-221.636361-7.189722 216.400211 230.910714c14.380469-36.947926 22.287936-77.104708 22.287936-119.07684 0-36.564993-5.999968-71.753884-17.051786-104.644152z"  horiz-adv-x="1024" />

    
    <glyph glyph-name="shangchuan" unicode="&#58979;" d="M512 597.333333l-298.666667-298.666667 170.666667 0 0-256 256 0 0 256 170.666667 0L512 597.333333zM810.666667 682.666667 810.666667 768 213.333333 768l0-85.333333L810.666667 682.666667z"  horiz-adv-x="1024" />

    
    <glyph glyph-name="yidong1" unicode="&#58935;" d="M512.031319 793.6 358.4 640 460.8 640 460.8 435.2 256 435.2 256 537.6 102.4 384.016865 256 230.4 256 332.8 460.8 332.8 460.8 128 358.4 128 512.031319-25.614454 665.6 128 563.2 128 563.2 332.8 768 332.8 768 230.4 921.662643 384.016865 768 537.6 768 435.2 563.2 435.2 563.2 640 665.6 640 512.031319 793.6Z"  horiz-adv-x="1024" />

    
    <glyph glyph-name="suofang" unicode="&#58898;" d="M940.517894-128l0.660311 0.683893h82.633135v82.633135l0.18866 0.165078-0.18866 0.18866v513.863019h-119.374695v-394.488324L204.531159 774.950947H598.52425V894.325641H85.156464L83.482106 896l-1.674359-1.674359H1.674359v-80.133388L0 812.517894l1.674359-1.674358V297.47575h119.351112V691.492423l699.433835-699.433835H426.961448v-119.374695h512.872553l0.683893-0.683893z"  horiz-adv-x="1024" />

    
    <glyph glyph-name="yifa" unicode="&#58897;" d="M1442.81496564 424.661122a272.209869 272.209869 0 0 1 88.994381-105.794578q48.393903 37.333773 79.334266 105.794578zM170.66666664 896v-886.677098h1960.023058V896z m1399.223128-162.07524a612.553873 612.553873 0 0 0 118.674729-72.894191l-35.467084-52.873955a503.305921 503.305921 0 0 1-112.887995 80.640948zM1080.67737264 204.99853800000005q-20.720244-23.006937-58.100684-23.006938h-365.264297q-37.333773 0-55.487319 16.753531A82.180967 82.180967 0 0 0 576.67144264 260.019185V597.3298199999999h65.334102v-74.667545h326.67051V667.330643H544.00439164V727.998024h494.672487v-261.336408h-396.671334v-197.542324a30.193689 30.193689 0 0 1 9.660114-23.660279 32.293713 32.293713 0 0 1 23.333608-7.466754h332.177241a26.273642 26.273642 0 0 1 20.020235 7.466754q8.400099 8.680102 18.060213 118.861399l63.234077-19.926901q-11.713471-120.774754-27.81366-139.394973z m635.700812-40.647145q-116.668039 40.040471-187.088868 86.427683-75.460888-45.780539-208.369118-86.427683L1290.67984264 222.40540899999996q118.628062 25.853637 190.91558 63.887418A320.1371 320.1371 0 0 0 1398.29444264 387.327349q-56.747334-116.668039-198.662338-218.029231l-35.467083 55.440652q123.85479 77.420911 181.255465 182.562147c19.320227 35.280415 45.127198 129.128186 45.127198 129.128186h-189.002224l76.207563 178.408766L1341.54710764 704.664416l-48.207234-112.001318h112.561325A1217.080985 1217.080985 0 0 1 1416.68132564 741.998188h57.214006a1144.793468 1144.793468 0 0 0-10.173453-149.33509H1729.35167064v-56.000659h-280.003295c-4.293384-19.693565-9.333443-38.827123-14.840174-56.000659H1678.01773264v-46.667215a335.537281 335.537281 0 0 0-98.001153-145.788382q70.980835-38.687122 171.595352-65.800774z"  horiz-adv-x="2263" />

    
    <glyph glyph-name="yidong" unicode="&#58923;" d="M694.272 45.05600000000004l-126.72 126.72a32.256 32.256 0 0 1-45.184 0 31.616 31.616 0 0 1-0.128-45.184l178.24-178.24a33.6 33.6 0 0 1 11.264-8.96 31.424 31.424 0 0 1 40.448 10.24L929.28 126.72000000000003c12.8 12.8 12.416 32.64-0.064 45.184a32.256 32.256 0 0 1-45.184 0.128l-125.76-125.76 1e-8 497.088c0 18.048-14.336 32.64-32.00000001 32.64a32.64 32.64 0 0 1-32-32.64L694.272 45.05600000000004z m-385.088 678.656L309.184 224.64a32.64 32.64 0 0 0-32-32.64c-17.664 0-32 14.592-32 32.64l0 497.152-126.464-126.464a32.256 32.256 0 0 0-45.184 0.128 31.616 31.616 0 0 0-0.12799999 45.12l178.04799999 178.048a32.064 32.064 0 0 0 30.08 13.056 31.36 31.36 0 0 0 19.2-8.96L481.92 641.472c12.8-12.8 12.416-32.64-0.064-45.12a32.256 32.256 0 0 0-45.184-0.128l-127.488 127.488z"  horiz-adv-x="1024" />

    
    <glyph glyph-name="shouzhi" unicode="&#59022;" d="M520.5 573.6h45.9c122.7 0 208.6 1.1 331.9 1.1 86.6 0 118.7-43 118.7-89.4 0.6-43.6-28.1-84.3-100.3-86-38.4-1.1-75.7-0.6-122.7 1.1-22.4 0.6-31.5-6.3-28.7-28.7 4-35-1.7-66.5-30.4-90.6-12.6-10.9-6.3-26.4-5.2-40.1 3.4-38.4-5.2-73.4-36.1-98.6-16-13.8-15.5-29.2-13.8-46.4 3.4-36.7-9.2-76.2-42.4-96.3-32.7-20.1-74.5-16-111.2-14.9-71.7 2.3-144.4-1.1-216.1 8.6-73.9 10.3-144.4 36.7-214.4 63.6-54.4 21.4-84.7 42-82.4 104.5 2.9 102.6 1.7 205.8 0.6 308.4-0.6 29.8 14.3 43.6 39.6 51 99.2 28.1 188 77.4 266 144.4 36.7 31.5 75.1 60.2 109.5 95.2 33.8 34.4 95.7 28.7 123.8 2.3 34.4-32.1 39-83.1 10.3-125-12.8-19.5-25.4-38.4-42.6-64.2z m153.7-52.7H416.8c-13.2 0-30.4-3.4-29.8 19.5 0.6 15.5-1.1 26.9 20.6 34.4 42.4 13.8 72.8 46.4 100.9 80.8 17.2 21.2 25.8 38.4 5.2 61.3-23.5 25.8-40.7 4-55.6-8.6-103.7-90-204.6-184-341.1-226.4-12.6-4-41.8-5.2-40.1-41.8 5.2-95.7 2.9-191.4 0.6-287.2-0.6-21.8 12-33.8 24.1-38.4 69.4-26.9 141-57.3 215.5-66.5 57.3-6.9 115.2-8 173.1-8 39.6 0 119.8-17.2 133.6 35.5 12 45.3-32.1 47.6-61.9 49.9-18.9 1.1-39-6.3-38.4 28.1 0.6 31.5 18.9 25.2 36.1 25.2 20.1 0 40.1 1.7 60.2-0.6 32.1-3.4 47 6.9 46.4 41.3-1.1 56.7-63.6 42.4-103.7 42.4-17.8 0-21.2 12-21.8 28.1-0.6 26.9 13.2 26.4 31.5 25.8 31.5-0.6 63.1-1.7 94-0.6 33.2 0.6 45.3 27.5 45.9 40.1 0.6 13.8 2.9 40.7-22.4 42.4-35.5 2.3-69.9 1.1-92.9 2.3-17.2 1.1-36.7-5.2-37.3 26.4 0 29.8 17.2 26.9 36.1 26.9 108.3 0 217.2 1.1 325.6-0.6 26.9-0.6 44.1 6.3 44.1 35 0 25.8-19.5 33.8-43 33.8-81.9 1.2-165-1.1-248.1-0.5z"  horiz-adv-x="1024" />

    
    <glyph glyph-name="chuota" unicode="&#59159;" d="M222.893486 595.032344c-55.549154-41.992393-88.808652-111.056352-88.808652-186.252984 0-128.153752 100.428294-232.903467 226.590692-238.876506l0-0.332575 126.993323 0 48.305169 0 25.230638 0c31.377638 0.494257 57.440224 26.39516 57.440224 58.100256l0 0c0 31.706119-25.89988 57.600883-57.605999 57.600883l67.231217 0c31.706119 0 57.604976 25.895787 57.604976 57.601906l0 0c0 31.706119-25.898857 57.600883-57.604976 57.600883l41.001833 0c31.706119 0 57.601906 25.89988 57.601906 57.605999l0 0c0 31.706119-25.895787 57.600883-57.601906 57.600883l170.320107 0c31.706119 0 57.600883 25.895787 57.600883 57.601906s-25.894763 57.601906-57.600883 57.601906L535.807219 630.8849l-48.305169 0c0 0-44.821835 0-59.762105 0C291.920606 630.885923 258.793114 622.171448 222.893486 595.032344zM618.643855 227.670535"  horiz-adv-x="1024" />

    
    <glyph glyph-name="11" unicode="&#58883;" d="M846.656 216.224 846.656 397.6l0.512 0L846.72 696.544c3.392 29.184-19.392 53.056-50.624 49.6L426.944 746.144 176.896 484.256l0-577.728c0-29.12 22.784-52.992 50.688-52.992l571.968 0c27.904 0 50.624 23.872 47.232 52.992l0.384 309.76L846.656 216.288zM246.656-76.768 246.656 467.424l195.392 0L442.048 676.704l334.784 0 0-279.104 0-181.376 0-292.992L246.656-76.768z"  horiz-adv-x="1024" />

    
    <glyph glyph-name="xiayi" unicode="&#59548;" d="M954.8 312.2c-12.7 0-23.6-5.5-36.3-18.2l-92.8-101.5v518c0 30.2-21.4 51.3-51.9 51.3-31.1 0-51.1-20.1-51.1-51.3v-518L630 293.7c-11.6 11.6-26.7 18.5-40.5 18.5-27.3 0-51.2-24-51.2-51.3 0-15.4 6-27.1 12.3-37.6L734 21.6c9.9-9.9 24-15.4 39.7-15.4 14.5 0 26.7 4.7 40.7 15.6l180.2 202.4c10 10.1 15.3 22.7 15.3 36.7 0 28.3-24.7 51.3-55.1 51.3zM358.6 166.5H68.1c-29.8 0-54-24.3-54-54.2 0-29.9 24.2-54.2 54-54.2h290.5c29.9 0 54 24.3 54 54.2 0 29.9-24.1 54.2-54 54.2z m0 271.6H68.1c-29.8 0-54-24.2-54-54.2 0-29.9 24.2-54.2 54-54.2h290.5c29.9 0 54 24.3 54 54.2 0 30-24.1 54.2-54 54.2z m0 271.7H68.1c-29.8 0-54-24.3-54-54.2 0-29.9 24.2-54.2 54-54.2h290.5c29.9 0 54 24.3 54 54.2 0 30-24.1 54.2-54 54.2z"  horiz-adv-x="1024" />

    
    <glyph glyph-name="shangyi" unicode="&#58896;" d="M998.6 545.1L816.9 749.3c-14.1 11-26.4 15.7-41 15.7-15.8 0-30.1-5.5-40.1-15.5L551 546.1c-6.3-10.7-12.4-22.4-12.4-37.9 0-27.6 24.1-51.7 51.6-51.7 13.9 0 29.2 7 40.8 18.6l93.4 102.1v-522.4c0-31.4 20.3-51.7 51.6-51.7 30.8 0 52.4 21.3 52.4 51.7V577.1L922 474.7c12.8-12.8 23.8-18.4 36.6-18.4 30.6 0 55.5 23.2 55.5 51.7 0 14.2-5.4 27-15.5 37.1zM357.3 712.6H64.4c-30.1 0-54.5-24.5-54.5-54.6 0-30.2 24.4-54.6 54.5-54.6h292.9c30.1 0 54.5 24.5 54.5 54.6s-24.4 54.6-54.5 54.6z m0-274H64.4c-30.1 0-54.5-24.5-54.5-54.6 0-30.2 24.4-54.6 54.5-54.6h292.9c30.1 0 54.5 24.5 54.5 54.6 0 30.2-24.4 54.6-54.5 54.6z m0-273.9H64.4c-30.1 0-54.5-24.5-54.5-54.6 0-30.2 24.4-54.6 54.5-54.6h292.9c30.1 0 54.5 24.5 54.5 54.6s-24.4 54.6-54.5 54.6z"  horiz-adv-x="1024" />

    
    <glyph glyph-name="add" unicode="&#58975;" d="M931.466 444.202h-359.778v359.778h-119.926v-359.778h-359.779v-119.926h359.779v-359.778h119.926v359.778h359.778z"  horiz-adv-x="1024" />

    
    <glyph glyph-name="fasong" unicode="&#59073;" d="M545.22971469 542.29028531l147.20914219-147.20914219a34.28571469 34.28571469 0 0 1 48.48 48.48l-203.64342844 203.65714219a34.18971469 34.18971469 0 0 1-25.27542844 10.01142938 34.18971469 34.18971469 0 0 1-25.27542844-10.01142938l-203.65714312-203.65714219a34.28571469 34.28571469 0 0 1 48.49371469-48.48l145.06971375 145.056-5.29371375-382.46399999a33.80571469 33.80571469 0 0 1 33.80571375-34.28571469 34.76571469 34.76571469 0 0 1 34.76571468 34.28571468l5.32114313 384.61714219zM512-96C246.90285687-96 32 118.90285687000005 32 384S246.90285687 864 512 864s480-214.90285687 480-480-214.90285687-480-480-480z"  horiz-adv-x="1024" />

    
    <glyph glyph-name="yuyin1" unicode="&#58942;" d="M512 183.7568a217.3952 217.3952 0 0 0-217.344 216.8832v278.4256a217.3952 217.3952 0 0 0 434.7392 0.0512v-278.4256A217.4464 217.4464 0 0 0 512 183.7568z m0 625.2544a130.2016 130.2016 0 0 1-130.1504-129.8944v-278.4256A130.2528 130.2528 0 0 1 512 270.7456a130.2528 130.2528 0 0 1 130.1504 129.9456v278.4256A130.2016 130.2016 0 0 1 512 809.0112zM512 18.0224c-197.5808 0-358.4 160.512-358.4 357.632a43.6736 43.6736 0 0 0 87.1936 0c0-149.1456 121.6512-270.6944 271.2064-270.6944s271.3088 121.5488 271.3088 270.6944a43.6224 43.6224 0 0 0 87.1424 0C870.4 178.4832 709.632 18.0224 512 18.0224zM514.7648-128a43.5712 43.5712 0 0 0-43.5712 42.6496l-2.816 146.0224a43.6224 43.6224 0 0 0 42.752 44.288H512c23.7056 0 43.0592-18.944 43.5712-42.6496l2.7648-145.9712a43.52 43.52 0 0 0-42.7008-44.3392h-0.8704z"  horiz-adv-x="1024" />

    
    <glyph glyph-name="luzhi" unicode="&#58980;" d="M868.906689 594.340589C851.698772 605.475184 722.816426 543.118997 722.816426 543.118997l0 6.5246c0 54.426587-44.394093 98.525967-99.152231 98.525967L241.634316 648.169565c-54.767348 0-99.157347-44.099381-99.157347-98.525967l0-331.282079c0-54.414307 44.39-98.530061 99.157347-98.530061l382.02988 0c54.763255 0 99.152231 44.115754 99.152231 98.530061l0 8.090259c0 0 129.649825-61.83123 146.090263-51.220568C885.34201 185.83675500000004 886.10949 583.213157 868.906689 594.340589L868.906689 594.340589zM352.965937 225.65666899999997L352.965937 543.162999l251.468289-158.739351L352.965937 225.65666899999997 352.965937 225.65666899999997zM352.965937 225.65666899999997"  horiz-adv-x="1024" />

    
    <glyph glyph-name="shanchu" unicode="&#58916;" d="M519.68 896c-104.448 0-189.44-82.944-193.024-186.88H82.944c-27.136 0-49.152-22.016-49.152-49.152s22.016-49.152 49.152-49.152h54.272v-550.912c0-103.424 70.144-187.904 156.672-187.904h441.344c86.528 0 156.672 83.968 156.672 187.904V610.304h49.152c27.136 0 49.152 22.016 49.152 49.152s-22.016 49.152-49.152 49.152h-228.864C709.12 813.056 624.128 896 519.68 896zM418.816 709.12C422.4 762.368 465.92 803.84 519.68 803.84s97.28-41.472 100.352-94.72H418.816zM293.888-35.84c-30.72 0-64.512 39.424-64.512 95.744V610.304h570.368v-550.912c0-56.32-33.792-95.744-64.512-95.744H293.888v0.512zM359.936 82.432c22.528 0 40.96 22.528 40.96 50.688V422.4c0 28.16-18.432 50.688-40.96 50.688s-40.96-22.528-40.96-50.688V133.12c0-28.16 17.92-50.688 40.96-50.688z m148.48 0c22.528 0 40.96 22.528 40.96 50.688V422.4c0 28.16-18.432 50.688-40.96 50.688s-40.96-22.528-40.96-50.688V133.12c0-28.16 18.432-50.688 40.96-50.688z m156.16 0c22.528 0 40.96 22.528 40.96 50.688V422.4c0 28.16-18.432 50.688-40.96 50.688s-40.96-22.528-40.96-50.688V133.12c0-28.16 17.92-50.688 40.96-50.688z"  horiz-adv-x="1024" />

    
    <glyph glyph-name="daoru" unicode="&#58895;" d="M378.368 270.848l145.92 168.96c7.68 9.216 18.944 14.848 30.72 14.848 24.064 0 44.032-22.528 44.032-50.688 0-13.824-4.608-26.624-12.8-35.84l-71.168-82.432H906.24c24.064 0 43.52-22.528 43.52-50.688 0-27.648-19.456-50.688-43.52-50.688h-391.168l71.168-81.92c7.68-9.216 12.8-21.504 12.8-35.84 0-27.648-19.456-50.688-44.032-50.688-11.776 0-23.04 5.632-30.72 14.848l-145.92 168.448c-7.68 9.216-12.8 21.504-12.8 35.84s5.12 26.624 12.8 35.84zM657.92 603.648h-219.136l2.048 219.136H145.92c-40.448 0-73.216-32.768-73.216-73.216v-731.136c0-40.448 32.768-73.216 73.216-73.216h438.784c40.448 0 73.216 32.768 73.216 73.216h73.216v-48.128c0-54.272-44.032-98.304-98.304-98.304H73.216c-40.448 0-73.216 32.768-73.216 73.216V822.784C0 863.232 32.768 896 73.216 896h452.608l205.824-219.136V384h-73.216l-0.512 219.648z"  horiz-adv-x="1024" />

    
    <glyph glyph-name="saomiao" unicode="&#58894;" d="M770.9 652.9h-495c-12.4 0-22.5-10.1-22.5-22.5v-495c0-12.4 10.1-22.5 22.5-22.5h495c12.4 0 22.5 10.1 22.5 22.5v495c0 12.4-10.1 22.5-22.5 22.5zM400.2 484.8c0 1.3 1.1 2.4 2.4 2.4h105.2c1.7 0 2.9 1.8 2.1 3.4-2.3 5-4.8 9.9-7.5 14.6-0.8 1.4 0.1 3.3 1.7 3.5l23.6 3.5c1 0.2 2.1-0.4 2.5-1.3 3.1-6.7 6.2-14.1 9.1-22 0.3-0.9 1.2-1.6 2.2-1.6h103.8c1.3 0 2.4-1.1 2.4-2.4v-67.1c0-1.3-1.1-2.4-2.4-2.4h-21.9c-1.3 0-2.4 1.1-2.4 2.4v41.7c0 1.3-1.1 2.4-2.4 2.4H429.1c-1.3 0-2.4-1.1-2.4-2.4v-41.7c0-1.3-1.1-2.4-2.4-2.4h-21.9c-1.3 0-2.4 1.1-2.4 2.4v67z m251-147.8c0-1.3-1.1-2.4-2.4-2.4H544c-1.3 0-2.4-1.1-2.4-2.4v-53.1c0-7.7-1.9-13.7-5.7-17.8-4.7-5.1-10.9-7.6-18.7-7.6h-47.6c-1.2 0-2.3 0.9-2.4 2.2l-1.9 22.8c-0.1 1.5 1.1 2.7 2.6 2.6 16.1-1.3 29.2-2 39.4-2 4.3 0 6.5 2.9 6.5 8.8v44.3c0 1.3-1.1 2.4-2.4 2.4H398c-1.3 0-2.4 1.1-2.4 2.4v20.4c0 1.3 1.1 2.4 2.4 2.4h113.5c1.3 0 2.4 1.1 2.4 2.4v15.1c0 0.9 0.5 1.7 1.4 2.1 15.4 7.3 29.4 14.7 42 22.4 2 1.2 1.2 4.4-1.2 4.4H444.4c-1.3 0-2.4 1.1-2.4 2.4v20.7c0 1.3 1.1 2.4 2.4 2.4h156.8c1.3 0 2.4-1.1 2.4-2.4v-19.8c0-0.6-0.3-1.3-0.7-1.7-12-11.4-32.1-26-60.1-43.6-0.7-0.4-1.1-1.2-1.1-2 0-1.3 1.1-2.4 2.4-2.4h104.8c1.3 0 2.4-1.1 2.4-2.4V337zM185.9 562.9c12.4 0 22.5 10.1 22.5 22.5V697.9h112.5c12.4 0 22.5 8.9 22.5 21.3s-10.1 23.7-22.5 23.7h-135c-12.4 0-22.5-10.1-22.5-22.5v-135c0-12.4 10.1-22.5 22.5-22.5z m0 0M860.9 562.9c12.4 0 22.5 10.1 22.5 22.5v135c0 12.4-10.1 22.5-22.5 22.5h-135c-12.4 0-22.5-11.2-22.5-23.7 0-12.4 10.1-21.3 22.5-21.3h112.5v-112.5c0-12.4 10.1-22.5 22.5-22.5z m0 0M185.9 202.9c-12.4 0-22.5-10.1-22.5-22.5v-135c0-12.4 10.1-22.5 22.5-22.5h135c12.4 0 22.5 11.2 22.5 23.7 0 12.4-10.1 21.3-22.5 21.3H208.4V180.4c0 12.4-10.1 22.5-22.5 22.5z m0 0M860.9 202.9c-12.4 0-22.5-10.1-22.5-22.5v-112.5H725.9c-12.4 0-22.5-8.9-22.5-21.3s10.1-23.7 22.5-23.7h135c12.4 0 22.5 10.1 22.5 22.5v135c0 12.4-10.1 22.5-22.5 22.5z m0 0"  horiz-adv-x="1024" />

    
    <glyph glyph-name="yuyin" unicode="&#58892;" d="M521.032 178.944 521.032 178.944c96.744 0 175.896 79.152 175.896 175.888L696.928 704.104C696.928 800.848 617.776 880 521.032 880l0 0c-96.744 0-175.888-79.152-175.888-175.896l0-349.264C345.144 258.096 424.296 178.944 521.032 178.944zM815.952 383.776c-26.2 3.92-50.616-14.144-54.536-40.344-0.36-2.384-0.528-4.752-0.528-7.096l-0.544 0c0.344-5.288 0.544-10.616 0.544-15.992 0-132.464-107.384-239.856-239.856-239.856S281.184 187.872 281.184 320.344c0 5.376 0.192 10.704 0.544 15.992l-0.544 0c0 26.496-21.48 47.968-47.968 47.968s-47.968-21.48-47.968-47.968c0-1.544 0.08-3.072 0.224-4.584-0.128-3.792-0.224-7.592-0.224-11.408 0-169.16 125.096-309.088 287.824-332.368l0-83.376 95.944 0 0 83.376c162.728 23.28 287.824 163.208 287.824 332.368 0 3.808-0.096 7.6-0.224 11.376C859.064 356.968 841.328 379.984 815.952 383.776z"  horiz-adv-x="1024" />

    
    <glyph glyph-name="shouxie" unicode="&#58885;" d="M635.973818 775.842909L230.469818 369.198545c-44.706909-44.869818-175.197091-311.621818-175.197091-311.621818s-5.748364-24.250182 9.076364-38.050909c15.755636-14.638545 36.770909-6.516364 36.770909-6.516363s274.106182 138.821818 310.132364 174.94109l26.996363 27.066182 378.484364 379.578182-180.759273 181.248zM910.429091 824.482909l-45.195636 45.312C846.545455 888.552727 820.503273 896.465455 793.6 894.068364c-26.949818-2.397091-54.784-15.104-77.172364-37.538909l-26.973091-27.04291 180.759273-181.271272 26.996364 27.066182c44.753455 44.869818 50.664727 111.709091 13.195636 149.178181M961.629091-126.603636c-8.285091 0-16.593455 2.699636-23.528727 8.285091-1.047273 0.837818-111.732364 88.157091-247.435637 94.72-89.227636 4.282182-165.329455-20.270545-245.922909-46.289455-51.176727-16.523636-104.098909-33.582545-160.046545-42.309818-132.002909-20.573091-229.236364 4.235636-233.309091 5.306182a37.701818 37.701818 0 0 0 18.897454 72.983272c0.861091-0.232727 87.156364-21.806545 202.868364-3.770181 50.082909 7.796364 97.931636 23.226182 148.573091 39.563636 83.432727 26.926545 169.704727 54.760727 272.523636 49.803636 160.721455-7.749818 285.696-106.984727 290.909091-111.197091 16.197818-13.032727 18.804364-36.770909 5.794909-53.015272a37.469091 37.469091 0 0 0-29.323636-14.103273"  horiz-adv-x="1024" />

    
    <glyph glyph-name="shibai" unicode="&#58890;" d="M512 896a512 512 0 1 1 512-512A512 512 0 0 1 512 896z m0-771.8912a48.64 48.64 0 1 0 48.64 48.64A48.64 48.64 0 0 0 512 124.1088z m34.5088 192C543.9488 292.9664 542.72 261.12 512 261.12s-31.5392 33.3824-34.5088 54.9888l-20.48 267.0592a55.0912 55.0912 0 0 0 110.08 0z"  horiz-adv-x="1024" />

    
    <glyph glyph-name="chenggong" unicode="&#59040;" d="M512.723 874.851c-271.456 0-491.52-220.064-491.52-491.52s220.064-491.52 491.52-491.52 491.52 220.064 491.52 491.52-220.064 491.52-491.52 491.52zM798.679 537.395c0 0-359.601-337.36-359.711-337.456-8.069-7.865-21.094-7.7-28.959 0.369l-183.637 181.22c-7.865 8.069-7.7 21.094 0.369 28.959s21.094 7.7 28.959-0.369l169.097-166.53 345.279 323.134c8.069 7.865 21.094 7.7 28.959-0.369 7.878-8.069 7.714-21.094-0.355-28.959z"  horiz-adv-x="1024" />

    
    <glyph glyph-name="bofang" unicode="&#59129;" d="M735.232 433.664L465.408 593.408c-41.472 24.576-85.504 0-85.504-48.64v-322.048c0-48.64 43.52-73.728 85.504-48.64l269.824 160.256c41.472 24.576 41.472 74.752 0 99.328z m-290.816-197.12V531.456l247.808-147.456-247.808-147.456zM512-128c-136.704 0-265.216 53.248-361.984 150.016S0 247.296 0 384s53.248 265.216 150.016 361.984S375.296 896 512 896s265.216-53.248 361.984-150.016S1024 520.704 1024 384s-53.248-265.216-150.016-361.984-225.28-150.016-361.984-150.016z m0 967.168C261.12 839.168 56.32 634.88 56.32 384s204.288-455.68 455.68-455.68 455.68 204.288 455.68 455.68-204.288 455.168-455.68 455.168z"  horiz-adv-x="1024" />

    
    <glyph glyph-name="shangyiye" unicode="&#58902;" d="M511.994 536.72905125l402.22169906-402.26969719a45.50193 45.50193 0 0 1 64.31707406 0.23998875 45.35793656 45.35793656 0 0 1 0.19199063 64.26907594L552.40816156 625.2850218799999a45.78991688 45.78991688 0 0 1-42.23807812 22.60697062 45.59792531 45.59792531 0 0 1-38.73423751-22.65496875l-426.22060687-426.268605a45.50193 45.50193 0 0 1 0.19199063-64.31707312 45.35793656 45.35793656 0 0 1 64.31707406-0.19199157l402.22169907 402.26969719z"  horiz-adv-x="1024" />

    
    <glyph glyph-name="shangyipian" unicode="&#58950;" d="M44 684c0-12 12-24 30-24L950 660c18 0 30 12 30 24l0 24c0 12-12 24-30 24.00000001l-876 0c-18 0-30-12-30-24.00000001L44 684zM512 450.00000001l396-396.00000001c18-18 48-24 60-12 12 12 12 42-12 60L554 516c-18 18-48 24-60 12-6 0-18-6-24-12l-402-402c-18-18-24-48-12-60 12-12 42-12 60 12L512 450.00000001z"  horiz-adv-x="1024" />

    
    <glyph glyph-name="xiayipian" unicode="&#59642;" d="M980 84c0 11.99999999-12 24-30 24L74 108c-18 0-30-12-30-24l0-24c0-11.99999999 12-24 30-24.00000001l876 0c18 0 30 12 30 24.00000001L980 84zM512 317.99999998l-396 396.00000002c-18 18-48 24-60.00000001 12-12-12-11.99999999-42 12.00000001-60L470 252c18-18 48-24 60-12 6 0 18 6 24 12l402 402c18 18 24 48 12 60-12 12-42 11.99999999-60-12L512 317.99999998z"  horiz-adv-x="1024" />

    
    <glyph glyph-name="xiayiye" unicode="&#59643;" d="M512.006 231.27094875l-402.22169906 402.26969719a45.50193 45.50193 0 0 1-64.31707406-0.23998875 45.35793656 45.35793656 0 0 1-0.19199063-64.26907594L471.59183845 142.71497811999996a45.78991688 45.78991688 0 0 1 42.23807811-22.60697062 45.59792531 45.59792531 0 0 1 38.73423751 22.65496875l426.22060687 426.268605a45.50193 45.50193 0 0 1-0.19199064 64.31707312 45.35793656 45.35793656 0 0 1-64.31707405 0.19199157l-402.22169907-402.26969719z"  horiz-adv-x="1024" />

    
    <glyph glyph-name="yuedushu" unicode="&#58914;" d="M512 63.60000000000002c-153 0-294.3 80.1-422.1 240.3-36.9 46.8-36.9 113.4 0 160.2C217.7 624.3 359 704.4 512 704.4s294.3-80.1 422.1-240.3c37.8-46.8 37.8-113.4 0-160.2C806.3 143.70000000000005 665 63.60000000000002 512 63.60000000000002z m0 192.6c71.1 0 127.8 57.6 127.8 127.8S583.1 511.8 512 511.8 384.2 455.1 384.2 384 440.9 256.20000000000005 512 256.20000000000005z"  horiz-adv-x="1024" />

    
    <glyph glyph-name="packup" unicode="&#58970;" d="M896.202 143.447c-11.462-0.001-22.916 4.428-31.573 13.263l-351.552 358.703-351.552-358.703c-17.087-17.437-45.076-17.716-62.514-0.627-17.439 17.090-17.721 45.076-0.63 62.515l383.124 390.916c8.315 8.483 19.695 13.263 31.571 13.263s23.26-4.781 31.571-13.263l383.124-390.916c17.090-17.438 16.807-45.424-0.63-62.515-8.603-8.431-19.775-12.634-30.938-12.635z"  horiz-adv-x="1024" />

    
    <glyph glyph-name="xiala" unicode="&#59644;" d="M127.798 624.553c11.462 0.001 22.916-4.428 31.573-13.263l351.552-358.703 351.552 358.703c17.087 17.43699999 45.07599999 17.716 62.514 0.627 17.439-17.09 17.721-45.076 0.63-62.515l-383.124-390.916c-8.315-8.483-19.695-13.26299999-31.571-13.263s-23.26 4.781-31.571 13.263l-383.124 390.916c-17.09 17.438-16.807 45.424 0.63 62.515 8.603 8.431 19.775 12.634 30.938 12.635z"  horiz-adv-x="1024" />

    
    <glyph glyph-name="552cc62440096" unicode="&#58906;" d="M768.704 192.384c-35.648 0-67.904-14.72-91.136-38.304l-309.152 171.712c9.056 17.568 14.688 37.184 14.688 58.272 0 12.576-2.368 24.48-5.76 35.936l304.608 189.152c22.688-20.416 52.384-33.184 85.216-33.184 70.592 0 128 57.408 128 128s-57.408 128-128 128-128-57.408-128-128c0-14.56 2.976-28.352 7.456-41.408l-301.824-187.392c-23.136 22.784-54.784 36.928-89.728 36.928-70.592 0-128-57.408-128-128 0-70.592 57.408-128 128-128 25.664 0 49.504 7.744 69.568 20.8l321.216-178.4c-3.04-10.944-5.184-22.208-5.184-34.08 0-70.592 57.408-128 128-128s128 57.408 128 128S839.328 192.384 768.704 192.384zM767.2 767.968c35.296 0 64-28.704 64-64s-28.704-64-64-64-64 28.704-64 64S731.904 767.968 767.2 767.968zM191.136 384.064c0 35.296 28.704 64 64 64s64-28.704 64-64c0-35.296-28.704-64-64-64S191.136 348.768 191.136 384.064zM768.704 0.384c-35.296 0-64 28.704-64 64s28.704 64 64 64 64-28.704 64-64S804 0.384 768.704 0.384z"  horiz-adv-x="1024" />

    
    <glyph glyph-name="weixin-color" unicode="&#59210;" d="M992 268.79999999999995c0 134.4-134.4 244.8-288 244.8-158.4 0-288-110.4-288-244.8s124.8-244.8 288-244.8c33.6 0 67.2 9.6 100.8 19.2l91.2-52.8-24 86.4c67.2 52.8 120 120 120 192z m-379.2 43.2c-19.2 0-33.6 14.4-33.6 33.6 0 14.4 19.2 33.6 33.6 33.6 24 0 43.2-14.4 43.2-33.6 0-14.4-19.2-33.6-43.2-33.6z m182.4 0c-14.4 0-33.6 14.4-33.6 33.6 0 14.4 19.2 33.6 33.6 33.6 24 0 43.2-14.4 43.2-33.6 0-14.4-14.4-33.6-43.2-33.6zM368 772.8c-187.2 0-336-124.8-336-288 0-91.2 52.8-168 134.4-225.6l-33.6-100.8 120 57.6c43.2-9.6 76.8-19.2 120-19.2h33.6c-4.8 24-9.6 48-9.6 72 0 148.8 124.8 268.8 288 268.8h33.6C680 672 536 772.8 368 772.8zM262.4 547.2c-24 0-52.8 14.4-52.8 43.2 0 24 24 43.2 52.8 43.2 24 0 43.2-14.4 43.2-43.2-4.8-28.8-19.2-43.2-43.2-43.2z m235.2 0c-24 0-52.8 14.4-52.8 43.2 0 24 24 43.2 52.8 43.2 24 0 43.2-14.4 43.2-43.2 0-28.8-19.2-43.2-43.2-43.2z"  horiz-adv-x="1024" />

    
    <glyph glyph-name="weibo-color" unicode="&#58937;" d="M652.34488889 361.0624c-27.77315555 25.75928889-63.77244445 44.82844445-108.50986667 57.19608889-44.73742222 11.84426667-92.0576 15.45102222-142.96177777 10.29688889-77.14133333-8.24888889-141.42577778-32.4608-192.28444445-74.19448889-50.91555555-41.22168889-74.05795555-87.60888889-68.9152-138.60408889 3.09475555-33.49617778 18.51164445-63.37422222 46.2848-89.14488889s63.77244445-44.82844445 108.50986667-57.19608889 92.0576-15.92888889 142.97315555-10.80888889c77.14133333 8.23751111 141.42577778 32.44942222 192.28444445 74.19448889s74.04657778 88.10951111 68.86968888 139.11608889c-3.04924445 33.49617778-18.47751111 63.37422222-46.25066666 89.14488889zM534.57351111 287.37991110999997c-16.45226667 31.42542222-43.70204445 52.04195555-82.27271111 62.33884444-36.51128889 9.79626667-73.03395555 6.18951111-109.54524445-9.78488888q-53.99893333-23.9616-78.67733333-72.65848889c-16.46364445-32.99555555-17.48764445-65.4336-3.60675555-97.84888889 13.89226667-31.9488 39.60604445-54.10133333 76.62933333-65.99111111 38.57066667-12.87964445 77.65333333-10.82026667 116.736 6.18951111 39.08266667 16.4864 66.85582222 42.76906667 82.28408889 78.31324444 15.94026667 35.03217778 15.42826667 68.00497778-1.54737778 99.44177778z m-137.81902222-106.66666666c-7.71413333-11.84426667-18.51164445-20.09315555-32.91591111-25.2472889q-20.82133333-6.94044445-38.57066667 1.54737778c-11.82151111 5.68888889-19.53564445 14.42702222-22.61902222 26.28266667-3.09475555 12.36764445-1.03537778 24.21191111 6.67875556 36.06755555 7.20213333 11.85564445 17.99964445 19.58115555 31.36853333 24.21191112a53.66897778 53.66897778 0 0 0 38.05866667-0.512c12.34488889-5.15413333 20.05902222-13.91502222 23.6544-26.28266667s1.50186667-24.21191111-5.65475556-36.06755555zM445.61066667 244.05333333a19.64942222 19.64942222 0 0 0-11.83288889-10.30826666 24.53048889 24.53048889 0 0 0-14.91626667 0c-10.24 5.15413333-12.33351111 12.87964445-6.67875556 23.69991111a22.47111111 22.47111111 0 0 0 26.22577778 10.30826667 15.83786667 15.83786667 0 0 0 9.26151112-9.79626667c1.536-4.58524445 0.512-9.22737778-2.05937778-13.90364445zM841.07946667 331.17297778c-11.82151111 18.54577778-25.71377778 32.4608-41.65404445 42.76906667a221.29777778 221.29777778 0 0 1-53.47555555 24.73528888c-4.10737778 1.54737778-7.20213333 2.57137778-8.73813334 3.08337778a65.39946667 65.39946667 0 0 0-6.17813333 4.13013334c-2.56 2.05937778-3.59537778 4.11875555-2.56 6.69013333a32.72248889 32.72248889 0 0 1 2.56 10.30826667c15.42826667 40.19768889 15.42826667 71.09973333 0 93.29777777-15.92888889 21.12853333-42.67804445 31.9488-79.64444445 31.9488s-79.71271111-10.30826667-128.05688888-30.91342222l-3.08337778-1.03537778a29.12711111 29.12711111 0 0 0-7.20213334-2.05937777 13.09582222 13.09582222 0 0 0-7.71413333-0.512 6.48533333 6.48533333 0 0 0-5.14275555 3.60675555c-1.024 2.05937778-1.024 5.68888889 0.512 10.29688889 15.92888889 50.49457778 12.34488889 87.08551111-10.24 109.22666666-25.1904 25.77066667-68.39182222 26.79466667-128.04551112 3.60675556C302.12551111 616.63004445 242.9952 575.40835555 184.32 516.6648888899999c-44.22542222-44.82844445-78.68871111-89.65688889-102.85511111-134.99733334S45.51111111 293.55804445 45.51111111 253.37173332999998c0-37.61493333 11.30951111-72.13511111 33.93991111-104.60728888q33.93991111-47.91182222 89.48622223-78.82524445c36.51128889-20.61653333 78.67733333-36.59093333 124.96213333-48.4352A574.74844445 574.74844445 0 0 1 436.90666667 3.9822222200000397c48.85617778 0.512 96.16497778 5.68888889 140.9024 16.4864 45.2608 10.82026667 84.34346667 25.24728889 117.77137778 43.23555556a436.736 436.736 0 0 1 87.93884444 61.31484444c24.68977778 22.67591111 43.71342222 46.8992 56.57031111 71.68 12.85688889 25.24728889 19.02364445 49.47057778 19.02364445 73.17048889a112.35555555 112.35555555 0 0 1-18.03377778 61.30346667zM629.71448889 132.80142221999995c-50.90417778-41.74506667-115.18862222-65.99111111-192.28444444-74.19448889-50.91555555-5.15413333-98.22435555-1.54737778-142.97315556 10.80888889s-80.78222222 31.4368-108.50986667 57.19608889-43.23555555 55.64871111-46.2848 89.14488889c-5.14275555 51.00657778 17.99964445 97.3824 68.9152 138.60408889 50.91555555 41.73368889 115.2 65.99111111 192.28444445 74.19448889 50.90417778 5.15413333 98.22435555 1.54737778 142.96177778-10.29688889 44.73742222-12.36764445 80.78222222-31.4368 108.50986666-57.19608889s43.23555555-55.64871111 46.2848-89.14488889c5.15413333-51.00657778-17.98826667-97.3824-68.90382222-139.11608889zM820.50844445 596.0135111100001c14.40426667-16.4864 24.17777778-35.54417778 28.28515555-56.67271111s3.08337778-41.73368889-3.59537778-61.31484445c-2.57137778-8.24888889-7.71413333-13.91502222-15.42826667-18.03377777-7.71413333-3.60675555-15.42826667-4.64213333-23.1424-2.05937778a27.50008889 27.50008889 0 0 0-17.48764444 15.45102222c-3.59537778 7.72551111-4.63075555 15.4624-2.05937778 23.18791111 6.69013333 22.16391111 2.57137778 41.22168889-12.34488888 58.22008889q-23.11964445 24.74666667-55.53493334 18.55715556a32.26737778 32.26737778 0 0 0-23.6544 4.07324444c-7.20213333 4.64213333-11.83288889 10.82026667-12.85688889 19.58115556-1.54737778 8.24888889-0.512 15.92888889 4.11875556 23.18791111s10.79751111 11.85564445 19.02364444 13.39164444a119.808 119.808 0 0 0 114.67662223-37.61493333zM914.62542222 681.55164445a238.93333333 238.93333333 0 0 0 58.61831111-116.45155556c8.74951111-44.30506667 6.69013333-86.05013333-7.19075555-126.29333334a37.54666667 37.54666667 0 0 0-17.48764445-21.12853333c-8.73813333-4.63075555-17.48764445-5.15413333-27.30666666-2.05937777a34.06506667 34.06506667 0 0 0-20.57102222 18.03377777c-4.61937778 8.76088889-5.14275555 17.52177778-2.57137778 27.30666667 9.77351111 28.34204445 11.37777778 58.74346667 5.14275555 90.16888889a168.01564445 168.01564445 0 0 1-41.65404444 82.44337777c-21.61777778 24.22328889-47.3088 40.70968889-77.14133333 49.98257778a178.02808889 178.02808889 0 0 1-89.99822223 4.64213334 34.4064 34.4064 0 0 0-27.24977777 5.15413333c-8.22613333 5.14275555-13.36888889 12.87964445-15.42826667 22.66453333s-0.512 18.55715555 5.14275555 26.79466667A33.87164445 33.87164445 0 0 0 679.60604445 758.32888889c42.67804445 9.27288889 84.85546667 7.21351111 127.0215111-6.18951111 41.65404445-13.39164445 77.65333333-36.57955555 107.99786667-70.54222223z"  horiz-adv-x="1024" />

    
    <glyph glyph-name="yuedu" unicode="&#58925;" d="M140.53181 833.487238c-14.628571 0-24.380952-9.752381-24.380953-24.380952v-853.333334c0-14.628571 9.752381-24.380952 24.380953-24.380952h741.180952c14.628571 0 24.380952 9.752381 24.380952 24.380952v853.333334c0 14.628571-9.752381 24.380952-24.380952 24.380952h-741.180952z m0 53.638095h741.180952c39.009524 0 78.019048-34.133333 78.019048-78.019047v-853.333334c0-43.885714-34.133333-78.019048-78.019048-78.019047h-741.180952c-43.885714 0-78.019048 34.133333-78.019048 78.019047v853.333334c-4.87619 43.885714 34.133333 78.019048 78.019048 78.019047zM247.808 618.934857h531.504762v-53.638095h-531.504762zM247.808 462.896762h531.504762v-53.638095h-531.504762zM247.808 301.982476h268.190476v-53.638095h-268.190476z"  horiz-adv-x="1024" />

    
    <glyph glyph-name="fanhui" unicode="&#58903;" d="M313.223529 429.176471l219.858824 219.858823c18.070588 18.070588 18.070588 42.164706 0 60.235294-18.070588 18.070588-42.164706 18.070588-60.235294 0L150.588235 387.011765l331.294118-331.294118c18.070588-18.070588 42.164706-18.070588 60.235294 0 18.070588 18.070588 18.070588 42.164706 0 60.235294l-228.894118 228.894118h518.02353c24.094118 0 42.164706 18.070588 42.164706 42.164706 0 18.070588-18.070588 42.164706-42.164706 42.164706H313.223529z"  horiz-adv-x="1024" />

    
    <glyph glyph-name="gouxuan" unicode="&#58915;" d="M516.551 867.283c-244.905 0-443.454-198.548-443.454-443.453 0-244.905 198.55-443.454 443.454-443.454 244.905 0 443.453 198.549 443.453 443.454S761.456 867.283 516.551 867.283z m276.303-303.326l-321.671-334.09c-0.988-1.129-22.932-11.712-30.2 1.976L262.969 405.767c-4.093 4.022-2.329 12.489 4.021 18.91l22.86 23.354c6.28 6.42 14.747 8.467 18.84 4.445l147.465-144.078 288.932 300.08c3.881 4.163 12.419 2.611 19.051-3.527l23.919-22.297c6.562-6.138 8.75-14.464 4.798-18.697z"  horiz-adv-x="1024" />

    
    <glyph glyph-name="gouxuan1" unicode="&#59021;" d="M512-102.4c-266.24 0-486.4 220.16-486.4 486.4s220.16 486.4 486.4 486.4 486.4-220.16 486.4-486.4-220.16-486.4-486.4-486.4z m0 921.6c-240.64 0-435.2-194.56-435.2-435.2s194.56-435.2 435.2-435.2 435.2 194.56 435.2 435.2-194.56 435.2-435.2 435.2z"  horiz-adv-x="1024" />

    
    <glyph glyph-name="taolun" unicode="&#58889;" d="M984.656842 454.763789C986.381474 687.535158 769.994105 876.597895 502.676211 876.597895S19.024842 687.535158 19.024842 456.596211c0-141.850947 81.866105-269.150316 207.333053-347.351579v-130.910316c0-18.162526 12.719158-27.270737 27.270737-27.270737a34.277053 34.277053 0 0 1 14.551579 3.664842l132.742736 87.255579c32.714105-7.275789 67.260632-9.108211 101.861053-9.108211 265.431579 1.832421 481.818947 189.170526 481.818947 421.888zM286.288842 385.616842c-32.714105 0-58.206316 25.438316-58.206316 58.206316 0 32.714105 25.492211 58.206316 58.206316 58.206316 32.714105 0 58.206316-25.492211 58.206316-58.206316 0-32.768-27.270737-58.206316-58.206316-58.206316z m220.052211 0c-32.768 0-58.206316 25.438316-58.206316 58.206316 0 32.714105 25.438316 58.206316 58.206316 58.206316 32.714105 0 58.206316-25.492211 58.206315-58.206316-1.832421-32.768-27.324632-58.206316-58.206315-58.206316z m212.722526 0c-32.714105 0-58.206316 25.438316-58.206316 58.206316 0 32.714105 25.492211 58.206316 58.206316 58.206316 32.714105 0 58.206316-25.492211 58.206316-58.206316-1.832421-32.768-27.270737-58.206316-58.206316-58.206316z m274.593684-32.768c32.714105-41.822316 50.930526-92.698947 52.709053-145.461895 0-89.088-52.709053-169.067789-130.910316-218.165894v-81.866106c0-10.886737-7.275789-18.162526-16.384-18.162526-3.610947 0-7.275789 0-9.054316 1.832421l-83.644631 54.541474a360.609684 360.609684 0 0 0-63.649685-5.443369c-83.644632 0-160.067368 29.103158-214.554947 76.368842a624.532211 624.532211 0 0 1 101.807158 14.551579c32.714105-14.551579 70.925474-23.659789 110.915368-23.659789 18.162526 0 34.546526 1.832421 50.930527 5.443368l7.275789 1.832421c5.443368 0 9.054316 0 14.551579-3.664842l7.27579-5.389473 36.325052-23.713685V20.210526c0 7.275789 3.664842 12.719158 9.162105 16.384l9.054316 7.27579c61.817263 36.378947 98.196211 96.363789 98.196211 160.013473 0 23.605895-5.443368 45.433263-14.551579 67.260632 0 1.832421-1.832421 1.832421-1.832421 3.664842 14.551579 25.438316 25.438316 52.709053 32.714105 81.812211l3.664842-3.664842z"  horiz-adv-x="1077" />

    
    <glyph glyph-name="jubao" unicode="&#59066;" d="M958.44352 90.69568l-383.08864 662.4256c-11.97056 19.95264-35.91168 35.91168-63.85152 35.91168-23.94624 0-51.87584-11.97056-63.8464-35.91168l-383.08864-662.4256a84.5312 84.5312 0 0 1 0-75.82208c11.97568-19.95264 35.91168-35.91168 63.8464-35.91168h766.1824c27.93472 0 53.74464 16.11776 65.7152 40.05888 11.97056 23.94624 10.10688 47.73376-1.8688 71.67488z m-415.01184 45.65504c0-19.95264-15.47264-31.92832-31.43168-31.92832-15.95904 0-32.41472 11.97568-32.41472 31.92832v35.91168c0 15.95904 12.46208 31.92832 32.41472 31.92832 19.95264 0 31.43168-11.97568 31.43168-31.92832v-35.91168z m0 158.9504c0-19.95264-15.47264-31.92832-31.43168-31.92832-15.95904 0-32.41472 11.97568-32.41472 31.92832v188.50304c0 15.95904 12.46208 31.92832 32.41472 31.92832 19.95264 0 31.43168-11.97568 31.43168-31.92832v-188.50304z"  horiz-adv-x="1024" />

    
    <glyph glyph-name="pingfen" unicode="&#58882;" d="M1020.93824 509.696a64.64 64.64 0 0 1-51.584 45.44l-276.352 41.984L569.41824 858.752A63.744 63.744 0 0 1 512.07424 896a63.68 63.68 0 0 1-57.28-37.248L331.21024 597.12l-276.48-41.984a64.64 64.64 0 0 1-51.52-45.44c-7.552-24.192-1.28-50.688 16.192-68.48l199.936-203.584-47.168-287.616c-4.16-25.024 5.76-50.304 25.408-65.28a61.952 61.952 0 0 1 67.328-5.12L512.07424 15.488000000000056l247.232-135.744a62.08 62.08 0 0 1 67.328 5.12c19.648 14.912 29.504 40.192 25.408 65.28l-47.232 287.552L1004.87424 441.28c17.408 17.728 23.68 44.224 16.128 68.416"  horiz-adv-x="1024" />

    
    <glyph glyph-name="mulu" unicode="&#58888;" d="M152 744m-120 0a120 120 0 1 1 240 0 120 120 0 1 1-240 0ZM152 384m-120 0a120 120 0 1 1 240 0 120 120 0 1 1-240 0ZM152 24m-120 0a120 120 0 1 1 240 0 120 120 0 1 1-240 0ZM1232 864H591.99999969a120 120 0 0 1 0-240h640.00000031a120 120 0 0 1 0 240zM1232 144H591.99999969a120 120 0 0 1 0-240h640.00000031a120 120 0 0 1 0 240zM932 504H591.99999969a120 120 0 0 1 0-240h340.00000031a120 120 0 0 1 0 240z"  horiz-adv-x="1408" />

    
    <glyph glyph-name="shuqian" unicode="&#58881;" d="M753.404-39.333L511.5 169.854 269.596-39.333V807.333h483.809v-846.666z"  horiz-adv-x="1024" />

    
    <glyph glyph-name="wenxue" unicode="&#58886;" d="M600.96005187 461.98713188q-39.02631375 3.04799719-64.66534687 2.67745593t-49.36559719-2.67745594q-15.31170187-1.54192781-21.03715594-8.36705062t-4.98437156-21.4316025q0.75303469-15.31170187 1.52997563-35.96636344t2.30691468-47.45312906q1.52997469-15.31170187 9.56234344-22.57908375t34.81888313-6.50239313a349.18092094 349.18092094 0 0 0 35.96636343-0.38249343q20.66661469-1.19529281 38.24937375-2.67745688 15.28779656-1.54192781 22.94962407 5.73740625t11.48676562 31.75893282q3.04799719 17.60666438 4.58992406 35.59582312t3.05995032 45.52870781q0.75303469 13.01674031-6.11989969 19.51913344T600.96005187 461.98713188zM511.99440031 864C246.90233562 864 32.00062156 649.09828594 32.00062156 384.00622125a477.68686313 477.68686313 0 0 1 61.86836156-235.8910575L57.1017725-19.166081250000047c-9.12008531-41.4288525 17.28393563-68.52614344 58.9638-60.51768l180.48923156 34.66349437a478.11716906 478.11716906 0 0 1 215.51131313-50.97924281c265.09206375 0 479.99377875 214.90171406 479.99377875 479.99377781S777.08646406 864 511.99440031 864zM339.56144281 429.08071781a606.14499375 606.14499375 0 0 0-11.12817656-89.53939312 414.27657375 414.27657375 0 0 0-22.96157719-75.38712469 436.06676344 436.06676344 0 0 0-37.49633906-70.02025875q-9.96874312-15.28779656-20.66661469-22.96157719t-19.90162687-9.56234344q-9.17985-1.90051594-15.68224313 2.67745594T205.31809531 178.82223843999998a54.40973344 54.40973344 0 0 0 0.38249344 6.89684062 21.5152725 21.5152725 0 0 0 2.2949625 6.88488656 91.1291325 91.1291325 0 0 0 5.73740625 9.56234344 128.26688344 128.26688344 0 0 0 11.47481156 14.16422156 455.74128469 455.74128469 0 0 1 34.81888313 45.91120125 234.11007187 234.11007187 0 0 1 22.19658937 43.62819094 276.18438281 276.18438281 0 0 1 13.78172719 52.04305406q4.96046531 29.05757063 9.56234344 71.93272782 1.51802156 14.52280875 1.91246906 30.6114525t0.38249344 32.14142625q0 16.08864281-1.19529281 30.993945t-1.91246813 26.40402094q-2.2949625 17.60666438 1.19529281 23.726565t16.45918313 5.35491187q9.17985 0 14.15226844-10.32733125t4.97241843-27.16900781q0.69327-63.52981875-1.97223375-112.50096938z m56.25048563 172.57639219q-16.06473656 15.67029-29.12928844 24.1090575-12.23979937 9.17985-11.4748125 21.4316025t16.82972437 24.49155187q7.64987437 5.34295969 19.12468688 3.82493719t17.60666437-15.31170187q10.75763625-19.90162687 19.50718032-37.87883344a311.49333563 311.49333563 0 0 1 18.75414656-33.2889075q6.8848875-10.75763625 6.88488656-18.37165219t-3.44244281-11.09231812q-3.44244375-3.44244375-9.94483781-1.91246907t-13.39923375 9.94483782a451.17526594 451.17526594 0 0 1-31.31667375 34.05389531zM666.70116313 443.62743281q-3.05995031-28.32844219-6.13185282-55.48549781t-6.11989968-56.25048469q-3.83689031-34.44834187-13.769775-44.01068531t-32.14142625-5.73740625a431.28559219 431.28559219 0 0 1-70.79719969 6.50239313q-36.36081094 0.38249344-62.37038438-4.97241844a137.19572156 137.19572156 0 0 0-18.37165218-2.67745594 15.78981937 15.78981937 0 0 0-11.4748125 3.44244375q-4.589925 3.82493719-7.26738094 12.62229281t-5.74935938 24.10905844q-3.83689031 17.60666438-6.88488656 52.80804094t-6.11989969 78.82956844q-1.54192781 17.58275906 6.11989969 27.16900875t30.70707469 11.857305q13.79368031 0.75303469 35.20137656 1.52997562t45.54066094 0.38249344q24.10905844-0.39444656 48.21811594-1.19529281t43.99873218-3.05995032q25.26849281-3.05995031 32.52392063-12.62229281t4.88874844-33.24109594z m146.20822968-259.83277593a28.35234844 28.35234844 0 0 0-4.97241843-14.53476188 22.35197719 22.35197719 0 0 0-10.75763625-8.03236781q-6.50239313-2.2949625-14.15226844 0.76498687a41.47666406 41.47666406 0 0 0-12.98088094 8.05627407q-5.366865 4.98437156-8.79735562 15.31170281a154.77848063 154.77848063 0 0 0-5.73740625 27.4917375q-2.2949625 17.22417094-4.589925 44.77567219-2.31886781 26.78651438-3.45439594 51.66056062t-1.19529281 57.0154725q0 32.15337938 0.76498687 76.49874656t2.2949625 110.95904157q0.75303469 28.30453594-7.26738094 40.18574812t-27.93399562 13.38728063q-36.74330438 3.81298406-81.50702438 0.76498781a610.91421188 610.91421188 0 0 1-84.56697375-11.4748125q-19.12468687-3.83689031-30.61145156-2.29496156t-15.68224406 6.88488656q-4.21938375 5.34295969-0.38249344 13.39923375t14.53476188 17.21221781q7.6618275 6.11989969 19.90162781 8.79735656t43.62819094 0.38249344q25.99762125-1.54192781 45.52870781-2.2949625t35.58387-0.76498687q16.08864281 0 30.22895812 0.38249343t29.46397032 1.91246813q32.15337938 2.30691563 46.68814125-0.38249344c9.68187281-1.79293969 16.07668969-4.7214075 19.12468687-8.79735562q6.10794656-8.36705062 6.8848875-15.68224313t-3.05995031-24.10905844q-3.05995031-15.323655-5.35491188-33.67140187a443.26242656 443.26242656 0 0 1-2.67745593-47.45312906q-0.39444656-29.10538219 0.38249343-72.32717438t3.05995032-106.75161094q0.75303469-11.49871781 1.91246812-23.72656406a253.61725219 253.61725219 0 0 1 4.20743156-27.16900875q3.04799719-14.91725531 7.64987438-33.67140094t11.48676469-43.24569843a54.61293375 54.61293375 0 0 0 2.35472718-19.45936875z"  horiz-adv-x="1024" />

    
    <glyph glyph-name="wenzhai" unicode="&#58961;" d="M853.793 836.323h-683.537c-33.281 0-60.307-26.973-60.307-60.278v-784.061c0-33.332 27.023-60.278 60.307-60.278h683.513c33.308 0 60.278 26.947 60.278 60.278v784.061c0.05 33.308-26.947 60.278-60.255 60.278zM733.185 233.19899999999996c0-11.061-8.974-20.11-20.084-20.11h-402.097c-11.086 0-20.11 8.974-20.11 20.11v20.134c0 11.109 8.997 20.158 20.11 20.158h402.123c11.061 0 20.084-9.025 20.084-20.158l-0.023-20.134zM733.185 394.054c0-11.086-8.974-20.084-20.084-20.084h-402.097c-11.086 0-20.11 8.949-20.11 20.084v20.134c0 11.086 8.997 20.11 20.11 20.11h402.123c11.061 0 20.084-8.949 20.084-20.11l-0.023-20.134zM733.185 554.909c0-11.109-8.974-20.134-20.084-20.134h-402.097c-11.086 0-20.11 8.997-20.11 20.134v20.11c0 11.109 8.997 20.084 20.11 20.084h402.123c11.061 0 20.084-8.949 20.084-20.084l-0.023-20.11z"  horiz-adv-x="1024" />

    
    <glyph glyph-name="pinglun" unicode="&#58887;" d="M74.735893 139.011034C33.547192 211.863833 10.039216 296.034467 10.039216 385.695684 10.039216 662.920969 234.774715 887.656467 512 887.656467 789.225285 887.656467 1013.960784 662.920969 1013.960784 385.695684 1013.960784 108.470396 789.225285-116.265101 512-116.265101 430.956434-116.265101 354.398734-97.05883 286.630237-62.949623L97.92827-99.218585C54.340187-107.596316 26.730945-79.259507 36.260386-35.93072L74.735893 139.011034ZM281.098039 305.381958C319.909579 305.381958 351.372549 336.844926 351.372549 375.656468 351.372549 414.468008 319.909579 445.930978 281.098039 445.930978 242.2865 445.930978 210.823529 414.468008 210.823529 375.656468 210.823529 336.844926 242.2865 305.381958 281.098039 305.381958ZM522.039216 305.381958C560.850755 305.381958 592.313725 336.844926 592.313725 375.656468 592.313725 414.468008 560.850755 445.930978 522.039216 445.930978 483.227676 445.930978 451.764706 414.468008 451.764706 375.656468 451.764706 336.844926 483.227676 305.381958 522.039216 305.381958ZM762.980392 305.381958C801.791932 305.381958 833.254902 336.844926 833.254902 375.656468 833.254902 414.468008 801.791932 445.930978 762.980392 445.930978 724.168853 445.930978 692.705882 414.468008 692.705882 375.656468 692.705882 336.844926 724.168853 305.381958 762.980392 305.381958Z"  horiz-adv-x="1024" />

    
    <glyph glyph-name="menu-care" unicode="&#58893;" d="M898.434 218.34c0 0-104.341 14.819-118.687 16.889-1.011 0.157-1.674 0.254-1.707 0.254-7.679 1.722-14.015 6.557-17.791 13.036-0.127 0.298-3.286 6.491-7.9 15.623-14.582 28.945-44.381 88.1-44.381 88.1-3.681 8.090-11.929 13.745-21.504 13.745-9.669 0-17.935-5.655-21.55-13.745 0 0-4.154-8.168-9.985-19.749-14.898-29.451-41.252-81.573-41.347-81.781-3.555-7.663-10.601-13.413-19.228-15.198-0.332-0.063-120.645-17.080-120.645-17.080-10.35-2.45-18.027-11.487-18.027-22.358 0-6.208 2.511-11.833 6.636-15.974 0 0 85.238-81.272 85.54-81.558 4.755-4.835 7.71-11.36 7.71-18.578 0-1.581-0.238-3.143-0.489-4.709-0.063-0.222-9.259-52.662-15.135-85.917-2.685-15.391-4.677-26.669-4.677-26.669s-0.489-3.16-0.489-4.709c0-12.734 10.54-23.036 23.558-23.036 3.159 0 6.131 0.632 8.879 1.739 0 0 79.457 40.95 102.523 52.675 3.712 1.895 6.083 3.098 6.335 3.191 3.159 1.248 6.604 1.974 10.224 1.974 3.555 0 6.873-0.712 9.969-1.88 0.283-0.094 2.718-1.326 6.509-3.284 23.257-11.818 101.862-52.534 102.476-52.756 2.767-1.122 5.815-1.785 8.975-1.785 13.019 0 23.605 10.301 23.605 23.036 0 0.412-2.305 13.906-5.372 31.506-6.099 34.996-15.135 86.692-15.231 87.546-0.094 0.964-0.283 1.913-0.283 2.89 0 7.095 2.876 13.527 7.505 18.329 0.174 0.157 9.605 9.165 22.072 21.028 25.31 24.109 63.34 60.307 63.34 60.307l0.298 0.284c4.154 4.171 6.795 9.828 6.795 16.132 0.003 11.029-7.895 20.224-18.513 22.483v0zM898.434 218.34zM434.32 153.307c-11.519 11.471-17.838 26.685-17.838 42.785 0 28.406 19.749 52.881 48.031 59.564 1.169 0.283 2.371 0.505 3.571 0.68 30.747 4.346 71.586 10.143 96.945 13.728l42.249 83.249c4.85 2.544 9.243 5.799 13.904 8.627 37.255 22.767 68.476 54.255 90.28 92.239 21.739 37.857 34.554 81.463 34.554 128.181 0 142.512-115.733 258.45-257.945 258.45-142.244 0-257.96-115.937-257.96-258.45 0-46.718 12.829-90.326 34.567-128.181 24.554-42.784 60.639-78.082 104.404-100.991-2.464-0.505-5.007-0.632-7.425-1.264-16.526-4.171-32.042-10.726-46.909-18.802-14.741-8.010-28.076-17.869-40.841-28.469-19.558-13.35-38.298-28.091-55.393-45.233-65.347-65.427-103.834-136.193-110.504-227.546-0.159-2.273-10.633-32.262 32.357-32.357h355.932c9.574 54.382 17.444 66.96 19.134 76.442-18.217 17.363-80.466 76.722-80.466 76.722-0.222 0.222-0.442 0.442-0.664 0.632h0.016zM434.32 153.307z"  horiz-adv-x="1024" />

    
    <glyph glyph-name="ziyuan" unicode="&#58953;" d="M1230.885292 418.962788a45.458555 45.458555 0 0 0 0-69.307262l-163.144622-139.101232-385.375633-327.554686a45.458555 45.458555 0 0 0-74.953078 34.653631V107.46947599999999a45.458555 45.458555 0 0 1-58.404996 43.803747 1495.946632 1495.946632 0 0 1-475.708693-239.752509 45.555897 45.555897 0 0 0-72.227512 45.847922 857.580025 857.580025 0 0 0 574.315795 635.64104 45.555897 45.555897 0 0 1 31.636039 43.317039v214.151652a45.458555 45.458555 0 0 0 74.953079 34.653631l311.493312-265.06134z"  horiz-adv-x="1246" />

    
    <glyph glyph-name="xingji" unicode="&#59640;" d="M752-43.200000000000045c-9.6 0-20.8 3.2-30.4 8l-208 104-209.6-104c-20.8-11.2-48-9.6-67.2 4.8-19.2 14.4-30.4 40-25.6 64l43.2 224L89.6 411.2C72 428.8 65.6 456 72 478.4c8 24 27.2 41.6 52.8 44.8l228.8 41.6 102.4 208c11.2 22.4 33.6 36.8 57.6 36.8s48-14.4 57.6-36.8l102.4-208 228.8-40c24-3.2 44.8-20.8 51.2-44.8 8-24 1.6-49.6-16-67.2L772.8 257.6l41.6-224c4.8-25.6-6.4-49.6-25.6-64-9.6-8-22.4-12.8-36.8-12.8z"  horiz-adv-x="1024" />

    
    <glyph glyph-name="jianglijin" unicode="&#58880;" d="M786.88711111 251.56266667c45.51111111 58.70933333 72.81777778 132.43733333 72.81777778 212.53688888 0 192.05688889-155.648 347.70488889-347.70488889 347.7048889s-347.70488889-155.648-347.70488889-347.7048889c0-80.09955555 27.30666667-153.37244445 72.81777778-212.53688888L84.19555555 98.19022222000001h142.44977778v-142.44977777l177.49333334 177.49333333c33.67822222-10.92266667 70.08711111-17.29422222 107.40622222-17.29422223s73.728 5.91644445 107.40622222 17.29422223l177.49333334-177.49333333v142.44977777H939.80444445l-152.91733334 153.37244445z m-162.92977778 66.90133333L512 376.71822222000003l-111.95733333-58.70933333 21.39022222 124.70044444-91.02222222 88.29155556 125.15555555 18.20444444 55.97866667 113.77777778 55.97866666-113.77777778 125.15555556-18.20444444-90.112-88.29155556 21.39022222-124.24533333z"  horiz-adv-x="1024" />

    
    <glyph glyph-name="fandui" unicode="&#59641;" d="M139.124106 295.14325299999996L377.029494 295.14325299999996c-92.185562-340.464205 63.516616-357.853247 63.516616-357.853247 65.993017 0 52.312436 52.18247599 57.3031 60.881602 0 166.502152 176.849824 296.971645 176.849824 296.971645l-1e-8 472.171899c0 46.607504-63.516616 63.393819-88.43309799 63.393819l-357.452111 0c-33.641191 0-61.036122-88.224344-61.036122-88.224344-88.43412199-300.70569-88.434122-390.177444-88.43412199-390.177444C79.342558 290.17919500000005 139.124106 295.14325299999996 139.124106 295.14325299999996L139.124106 295.14325299999996 139.124106 295.14325299999996zM139.124106 295.14325299999996M772.328585 295.29981899999996L914.785088 295.29981899999996c29.420053 0 29.873378 28.89612 29.873378 28.89612l-29.420053 476.202703c0 30.30930601-30.36149501 30.309306-30.36149499 30.309306L761.57977699 830.707948c-25.68600901 0-25.458835-20.049638-25.458835-20.049638L736.12094199 331.41127100000006C736.120942 294.83728399999995 772.328585 295.29981899999996 772.328585 295.29981899999996L772.328585 295.29981899999996 772.328585 295.29981899999996zM772.328585 295.29981899999996"  horiz-adv-x="1024" />

    
    <glyph glyph-name="dianzan" unicode="&#58910;" d="M884.875894 472.856747L646.970506 472.856747c92.185562 340.464205-63.516616 357.853247-63.516616 357.853247-65.993017 0-52.312436-52.182476-57.3031-60.881602 0-166.502152-176.849824-296.971645-176.849824-296.971645l0-472.171899c0-46.607504 63.516616-63.393819 88.433098-63.393819l357.452111 0c33.641191 0 61.036122 88.224344 61.036122 88.224344 88.434122 300.70569 88.434122 390.177444 88.434122 390.177444C944.657442 477.820805 884.875894 472.856747 884.875894 472.856747L884.875894 472.856747 884.875894 472.856747zM884.875894 472.856747M251.671415 472.700181L109.214912 472.700181c-29.420053 0-29.873378-28.89612-29.873378-28.89612l29.420053-476.202703c0-30.309306 30.361495-30.309306 30.361495-30.309306L262.420223-62.70794799999999c25.686009 0 25.458835 20.049638 25.458835 20.049638L287.879058 436.588729C287.879058 473.162716 251.671415 472.700181 251.671415 472.700181L251.671415 472.700181 251.671415 472.700181zM251.671415 472.700181"  horiz-adv-x="1024" />

    
    <glyph glyph-name="xiugai1" unicode="&#58941;" d="M819.2 0 204.8 0c-42.496 0-76.8 34.304-76.8 76.8L128 691.2c0 42.496 34.304 76.8 76.8 76.8l435.2 0c14.336 0 25.6-11.264 25.6-25.6l0 0c0-14.336-11.264-25.6-25.6-25.6L204.8 716.8c-14.336 0-25.6-11.264-25.6-25.6l0-614.4c0-14.336 11.264-25.6 25.6-25.6l614.4 0c14.336 0 25.6 11.264 25.6 25.6l0 230.4c0 14.336 11.264 25.6 25.6 25.6l0 0c14.336 0 25.6-11.264 25.6-25.6l0-230.4C896 34.304 861.696 0 819.2 0zM500.736 267.776c-15.36-15.36-39.424-15.36-54.784 0s-15.36 39.424 0 54.784L829.44 706.048c15.36 15.36 39.424 15.36 54.784 0s15.36-39.424 0-54.784L500.736 267.776z"  horiz-adv-x="1024" />

    
    <glyph glyph-name="tingyong" unicode="&#59031;" d="M512.94208 894.99648C229.13024 894.99648 2.06848 664.1664 2.06848 384.12288a508.76416 508.76416 0 0 1 510.8736-510.8736 508.74368 508.74368 0 0 1 510.8736 510.8736C1023.81568 664.1664 792.9856 894.99648 512.94208 894.99648z m0-949.8624c-242.19648 0-438.9888 196.77184-438.9888 438.9888 0 238.40768 196.77184 435.2 438.9888 435.2 242.19648 0 435.2-196.77184 435.2-435.2 0-242.19648-196.77184-438.9888-435.2-438.9888zM758.92736 327.35232H266.97728c-30.26944 0-56.75008 26.48064-56.75008 56.75008s26.48064 56.75008 56.75008 56.75008h491.95008c30.28992 0 56.77056-26.48064 56.77056-56.75008 0-34.03776-26.50112-56.75008-56.77056-56.75008z"  horiz-adv-x="1024" />

    
    <glyph glyph-name="yuanjiaojuxingkaobei" unicode="&#58943;" d="M86.74999986 460.20833319h850.50000028a70.87499986 70.87499986 0 0 0 0-141.74999972H86.74999986a70.87499986 70.87499986 0 0 0 0 141.74999972z m425.25000014 425.25000014a70.87499986 70.87499986 0 0 0 70.87499986-70.87499986v-850.50000028a70.87499986 70.87499986 0 0 0-141.74999972 0V814.58333347a70.87499986 70.87499986 0 0 0 70.87499986 70.87499986z"  horiz-adv-x="1024" />

    
    <glyph glyph-name="ditu" unicode="&#58891;" d="M512 736c172.8 0 313.6-136.533 313.6-305.067 0-117.333-174.933-377.6-313.6-552.533-136.533 172.8-313.6 435.2-313.6 552.533 0 168.533 140.8 305.067 313.6 305.067M512 800c-209.067 0-377.6-166.4-377.6-369.067 0-204.8 377.6-654.933 377.6-654.933s377.6 450.133 377.6 654.933c0 202.667-168.533 369.067-377.6 369.067v0zM512 520.533c23.467 0 44.8-19.2 44.8-44.8s-19.2-44.8-44.8-44.8-44.8 19.2-44.8 44.8 21.333 44.8 44.8 44.8M512 584.533c-59.733 0-108.8-49.067-108.8-108.8s49.067-108.8 108.8-108.8c59.733 0 108.8 49.067 108.8 108.8s-49.067 108.8-108.8 108.8v0z"  horiz-adv-x="1024" />

    
    <glyph glyph-name="word" unicode="&#59112;" d="M1017.344 742.4c2.56 26.112-17.92 46.592-44.544 44.032-122.88 2.048-246.272 0-369.664 0.512v92.16H535.04c-176.64-31.232-353.28-61.44-529.92-92.16v-805.888c175.616-30.72 351.232-59.904 526.848-92.16H604.16v92.16c115.2 0 230.4 0 345.6-0.512 19.456 1.024 41.472-0.512 58.368 11.264 13.312 20.48 9.728 46.592 11.264 69.632-2.048 227.328 0.512 454.144-2.048 680.96zM389.632 227.328c-19.456-9.728-48.128 0.512-70.656-1.024-15.36 76.288-33.28 152.064-46.592 228.352-13.312-74.24-31.232-147.968-46.592-222.208-22.016 1.024-44.544 2.56-66.56 4.096C139.776 337.92 117.76 438.272 99.84 540.16c19.456 1.024 39.424 1.536 59.392 2.56 11.776-73.216 25.088-146.432 35.84-219.648l49.152 225.792c22.016 1.024 43.52 2.048 65.536 3.584 15.36-77.824 31.232-155.136 47.616-232.96 13.312 79.872 27.648 159.744 41.472 239.616 23.04 1.024 46.08 2.048 69.12 3.584-27.136-111.616-50.176-224.256-78.336-335.36z m593.92-211.968H603.648v92.16h299.52v46.08H603.648v57.856h299.52v46.08H603.648v57.856h299.52v46.08H603.648v57.856h299.52v46.08H603.648V522.24h299.52v46.08H603.648V625.664h299.52v46.08H603.648V752.64h379.904v-737.28z"  horiz-adv-x="1024" />

    


  </font>
</defs>
</svg>
